<svg xmlns="http://www.w3.org/2000/svg" viewBox="0 0 117.92 38.25"><path d="M7.57,38.25h-.9a14.31,14.31,0,0,1-1.87-.16,5.89,5.89,0,0,1-1.66-.55,5.65,5.65,0,0,1-1.4-1,5.42,5.42,0,0,1-1-1.39,5.88,5.88,0,0,1-.54-1.66A13.76,13.76,0,0,1,0,31.58c0-.21,0-.91,0-.91V7.57s0-.69,0-.9A13.63,13.63,0,0,1,.18,4.8,5.88,5.88,0,0,1,.72,3.14,5.58,5.58,0,0,1,3.14.72,5.71,5.71,0,0,1,4.79.18,13.9,13.9,0,0,1,6.67,0H111.25a13.36,13.36,0,0,1,1.86.17,5.84,5.84,0,0,1,1.67.54,5.42,5.42,0,0,1,1.39,1,5.69,5.69,0,0,1,1,1.4,5.69,5.69,0,0,1,.53,1.65,12.32,12.32,0,0,1,.18,1.89v.89c0,.37,0,.73,0,1.09V29.59c0,.36,0,.72,0,1.08v.92a13.4,13.4,0,0,1-.17,1.86,6.06,6.06,0,0,1-.54,1.67,5.78,5.78,0,0,1-2.42,2.41,6.3,6.3,0,0,1-1.67.55,14,14,0,0,1-1.87.16H7.57Z"/><path d="M23.9,19.43a5,5,0,0,1,2.35-4.16,5.05,5.05,0,0,0-4-2.15c-1.68-.18-3.31,1-4.16,1s-2.19-1-3.61-1A5.31,5.31,0,0,0,10,15.89c-1.94,3.35-.49,8.27,1.36,11,.92,1.32,2,2.8,3.43,2.75s1.9-.88,3.58-.88,2.14.88,3.59.85,2.42-1.33,3.32-2.67a11.07,11.07,0,0,0,1.52-3.1A4.75,4.75,0,0,1,23.9,19.43Z" fill="#fff"/><path d="M21.16,11.34a4.89,4.89,0,0,0,1.12-3.49A4.93,4.93,0,0,0,19.07,9.5a4.65,4.65,0,0,0-1.14,3.37A4.1,4.1,0,0,0,21.16,11.34Z" fill="#fff"/><path d="M41.43,26.26H36.7l-1.14,3.36h-2L38,17.2h2.08L44.6,29.62h-2Zm-4.24-1.54h3.75l-1.85-5.45H39Z" fill="#fff"/><path d="M54.29,25.09c0,2.82-1.51,4.63-3.78,4.63a3.07,3.07,0,0,1-2.85-1.59h0v4.49H45.76v-12h1.8v1.5h0a3.22,3.22,0,0,1,2.88-1.6C52.77,20.47,54.29,22.29,54.29,25.09Zm-1.91,0c0-1.83-1-3-2.4-3s-2.37,1.23-2.37,3,1,3.05,2.37,3.05S52.38,26.94,52.38,25.09Z" fill="#fff"/><path d="M64.25,25.09c0,2.82-1.5,4.63-3.78,4.63a3.08,3.08,0,0,1-2.85-1.59h0v4.49H55.72v-12h1.8v1.5h0a3.2,3.2,0,0,1,2.88-1.6C62.74,20.47,64.25,22.29,64.25,25.09Zm-1.91,0c0-1.83-1-3-2.39-3s-2.38,1.23-2.38,3,1,3.05,2.38,3.05S62.34,26.94,62.34,25.09Z" fill="#fff"/><path d="M70.84,26.16c.14,1.23,1.33,2,3,2s2.69-.81,2.69-1.92-.68-1.54-2.29-1.93L72.6,24c-2.28-.55-3.34-1.62-3.34-3.35,0-2.14,1.87-3.61,4.52-3.61s4.42,1.47,4.48,3.61H76.39c-.11-1.24-1.14-2-2.64-2s-2.52.76-2.52,1.86c0,.88.66,1.4,2.26,1.79l1.37.34c2.54.6,3.6,1.62,3.6,3.44,0,2.32-1.85,3.78-4.79,3.78-2.76,0-4.61-1.42-4.73-3.67Z" fill="#fff"/><path d="M82.47,18.42v2.15h1.72V22H82.47v5c0,.78.35,1.14,1.1,1.14a5,5,0,0,0,.62-.05v1.47a5.39,5.39,0,0,1-1,.08c-1.83,0-2.54-.69-2.54-2.44V22H79.29V20.57h1.32V18.42Z" fill="#fff"/><path d="M85.19,25.09c0-2.84,1.68-4.63,4.3-4.63s4.29,1.79,4.29,4.63-1.66,4.64-4.29,4.64S85.19,28,85.19,25.09Zm6.7,0c0-1.95-.9-3.1-2.4-3.1s-2.4,1.16-2.4,3.1.89,3.11,2.4,3.11S91.89,27.06,91.89,25.09Z" fill="#fff"/><path d="M95.31,20.57h1.78v1.54h0a2.15,2.15,0,0,1,2.18-1.64,3.06,3.06,0,0,1,.63.07v1.74a2.57,2.57,0,0,0-.83-.11,1.87,1.87,0,0,0-1.94,2.08v5.37H95.31Z" fill="#fff"/><path d="M108.51,27c-.25,1.65-1.85,2.77-3.9,2.77-2.63,0-4.27-1.76-4.27-4.59s1.65-4.68,4.19-4.68,4.08,1.72,4.08,4.46v.64h-6.39v.11a2.36,2.36,0,0,0,2.44,2.57A2,2,0,0,0,106.75,27Zm-6.28-2.7h4.53a2.18,2.18,0,0,0-2.23-2.3A2.29,2.29,0,0,0,102.23,24.26Z" fill="#fff"/><path d="M37,7.86a2.64,2.64,0,0,1,2.81,3c0,1.91-1,3-2.81,3H34.8v-6ZM35.72,13h1.13a1.88,1.88,0,0,0,2-2.15,1.88,1.88,0,0,0-2-2.13H35.72Z" fill="#fff"/><path d="M40.81,11.57a2.13,2.13,0,1,1,4.24,0,2.13,2.13,0,1,1-4.24,0Zm3.33,0c0-1-.44-1.55-1.21-1.55s-1.2.57-1.2,1.55.43,1.55,1.2,1.55S44.14,12.55,44.14,11.57Z" fill="#fff"/><path d="M50.7,13.82h-.92l-.93-3.31h-.07l-.93,3.31h-.91L45.7,9.32h.9l.8,3.44h.07l.93-3.44h.85l.92,3.44h.08l.8-3.44h.89Z" fill="#fff"/><path d="M53,9.32h.86V10h.06a1.35,1.35,0,0,1,1.35-.81,1.47,1.47,0,0,1,1.55,1.68v2.91h-.88V11.13c0-.72-.32-1.08-1-1.08a1,1,0,0,0-1.07,1.14v2.63H53Z" fill="#fff"/><path d="M58.22,7.56h.89v6.26h-.89Z" fill="#fff"/><path d="M60.34,11.57a2.13,2.13,0,1,1,4.25,0,2.13,2.13,0,1,1-4.25,0Zm3.34,0c0-1-.44-1.55-1.21-1.55s-1.21.57-1.21,1.55.44,1.55,1.21,1.55S63.68,12.55,63.68,11.57Z" fill="#fff"/><path d="M65.53,12.55c0-.81.6-1.28,1.67-1.34l1.22-.08v-.38c0-.48-.31-.75-.92-.75s-.84.18-.94.5H65.7c.09-.77.82-1.27,1.84-1.27s1.77.56,1.77,1.52v3.07h-.86v-.63h-.07A1.52,1.52,0,0,1,67,13.9,1.36,1.36,0,0,1,65.53,12.55Zm2.89-.39v-.37l-1.1.07c-.62,0-.9.25-.9.65s.35.64.84.64A1.06,1.06,0,0,0,68.42,12.16Z" fill="#fff"/><path d="M70.48,11.57c0-1.42.73-2.32,1.86-2.32a1.49,1.49,0,0,1,1.39.79h.06V7.56h.89v6.26h-.85v-.71h-.07a1.58,1.58,0,0,1-1.42.79C71.2,13.9,70.48,13,70.48,11.57Zm.91,0c0,.95.45,1.53,1.21,1.53s1.21-.58,1.21-1.53S73.34,10,72.6,10,71.39,10.62,71.39,11.57Z" fill="#fff"/><path d="M78.36,11.57c0-1.42.73-2.32,1.87-2.32a1.49,1.49,0,0,1,1.38.79h.06V7.56h.89v6.26h-.85v-.71h-.07a1.57,1.57,0,0,1-1.41.79C79.08,13.9,78.36,13,78.36,11.57Zm.91,0c0,.95.46,1.53,1.21,1.53s1.21-.58,1.21-1.53S81.22,10,80.48,10,79.27,10.62,79.27,11.57Z" fill="#fff"/><path d="M83.9,8a.56.56,0,0,1,.58-.55.55.55,0,1,1,0,1.09A.55.55,0,0,1,83.9,8ZM84,9.32h.88v4.5H84Z" fill="#fff"/></svg>