<?xml version="1.0" encoding="utf-8"?>
<!-- Generator: Adobe Illustrator 22.1.0, SVG Export Plug-In . SVG Version: 6.00 Build 0)  -->
<svg version="1.1" id="Layer_1" xmlns="http://www.w3.org/2000/svg" xmlns:xlink="http://www.w3.org/1999/xlink" x="0px" y="0px"
	 viewBox="0 0 2000 626.8" style="enable-background:new 0 0 2000 626.8;" xml:space="preserve">
<style type="text/css">
	.st0{fill: #adbbc6;}
	.st1{fill: #f8fafd;}
	.st2{fill:#E6E6E6;}
	.st3{fill:#FFFFFF;}
</style>
<g>
	<path class="st0" d="M583.9,344.3c8.8-14.9,13.8-30.9,13.8-50.1c0-44.3-37.4-86.1-86.3-86.1h-36.7c4.9-12.9,8.9-28.3,8.9-46.8
		c0-73.2-37.9-105.4-95.8-105.4c-62,0-58.4,95.5-72.2,109.3C292.6,188,265.6,232,246.4,249H147c-17.8,0-32.2,14.4-32.2,32.2v241.4
		c0,17.8,14.4,32.2,32.2,32.2h64.4c15,0,27.6-10.2,31.2-24.1c44.8,1,75.5,40.2,178.9,40.2c7.3,0,15.3,0,22.4,0
		c77.6,0,112.7-39.7,113.6-95.9c13.4-18.5,20.4-43.4,17.4-67.4C584.7,389.1,588.6,367.1,583.9,344.3z"/>
	<path class="st1" d="M521.8,398.4c12.6,21.3,1.3,49.7-14,57.9c7.7,49.1-17.7,66.3-53.4,66.3h-38c-72.1,0-118.7-38-172.7-38V297.3
		h11c28.5,0,68.4-71.3,95.1-98c28.5-28.5,19-76.1,38-95.1c47.6,0,47.6,33.2,47.6,57.1c0,39.4-28.5,57.1-28.5,95.1h104.6
		c21.2,0,38,19,38,38c0.1,19-12.9,38-22.4,38C540.6,347.1,543.5,377.9,521.8,398.4L521.8,398.4z"/>
	<circle class="st1" cx="179.2" cy="490.5" r="24.1"/>
	<g>
		<path class="st0" d="M756.8,273.7L702.2,202v71.7h-39.6V111.3h39.6v71.3l54.1-71.3h46.5l-62.9,79.6l65.2,82.8H756.8z"/>
		<path class="st0" d="M863.4,143v32.9h53v30.5h-53V242h59.9v31.7h-99.5V111.3h99.5V143H863.4z"/>
		<path class="st0" d="M1066.3,189.4c-4.3,7.8-11,14.1-19.9,18.9c-8.9,4.8-20.1,7.2-33.3,7.2h-24.5v58.3H949V111.3h64.1
			c13,0,23.9,2.2,32.9,6.7c8.9,4.5,15.7,10.6,20.1,18.5c4.5,7.9,6.7,16.9,6.7,27.1C1072.8,173,1070.7,181.6,1066.3,189.4z
			 M1027,178.6c3.7-3.5,5.6-8.6,5.6-15c0-6.5-1.9-11.5-5.6-15c-3.7-3.5-9.3-5.3-16.9-5.3h-21.5V184h21.5
			C1017.7,184,1023.3,182.2,1027,178.6z"/>
		<path class="st0" d="M1132.3,111.3v97.2c0,9.7,2.4,17.2,7.2,22.4c4.8,5.2,11.8,7.9,21.1,7.9c9.3,0,16.3-2.6,21.3-7.9
			c4.9-5.2,7.4-12.7,7.4-22.4v-97.2h39.6v96.9c0,14.5-3.1,26.8-9.3,36.8c-6.2,10-14.5,17.6-24.9,22.7c-10.4,5.1-22,7.6-34.8,7.6
			c-12.8,0-24.3-2.5-34.4-7.5c-10.1-5-18.1-12.6-23.9-22.7c-5.9-10.1-8.8-22.4-8.8-36.9v-96.9H1132.3z"/>
		<path class="st0" d="M1357.6,245H1297l-9.7,28.7h-41.4l58.8-162.4h45.8l58.8,162.4h-41.9L1357.6,245z M1347.5,214.5l-20.1-59.5
			l-19.9,59.5H1347.5z"/>
		<path class="st0" d="M1453.9,269.6c-9.4-3.9-16.9-9.6-22.6-17.1c-5.6-7.6-8.6-16.7-8.9-27.3h42.1c0.6,6,2.7,10.6,6.2,13.8
			c3.5,3.2,8.2,4.7,13.9,4.7c5.9,0,10.5-1.3,13.9-4c3.4-2.7,5.1-6.4,5.1-11.2c0-4-1.4-7.3-4-9.9c-2.7-2.6-6-4.8-9.9-6.5
			c-3.9-1.7-9.5-3.6-16.8-5.8c-10.5-3.2-19.1-6.5-25.7-9.7c-6.6-3.2-12.3-8-17.1-14.3c-4.8-6.3-7.2-14.6-7.2-24.8
			c0-15.1,5.5-27,16.4-35.5c11-8.6,25.2-12.8,42.8-12.8c17.9,0,32.3,4.3,43.3,12.8c11,8.6,16.8,20.5,17.6,35.7h-42.8
			c-0.3-5.2-2.2-9.4-5.8-12.4c-3.6-3-8.1-4.5-13.7-4.5c-4.8,0-8.6,1.3-11.6,3.8c-2.9,2.5-4.4,6.2-4.4,11c0,5.2,2.5,9.3,7.4,12.3
			c4.9,2.9,12.6,6.1,23.1,9.5c10.5,3.6,19,6.9,25.6,10.2c6.6,3.2,12.2,7.9,17,14.1c4.8,6.2,7.2,14.1,7.2,23.8
			c0,9.3-2.4,17.7-7.1,25.2c-4.7,7.6-11.5,13.6-20.5,18c-8.9,4.5-19.5,6.7-31.7,6.7C1473.9,275.4,1463.3,273.4,1453.9,269.6z"/>
		<path class="st0" d="M1670.5,245h-60.6l-9.7,28.7h-41.4l58.8-162.4h45.8l58.8,162.4h-41.9L1670.5,245z M1660.3,214.5l-20.1-59.5
			l-19.9,59.5H1660.3z"/>
		<path class="st0" d="M1885.2,273.7h-39.6l-66.2-100.2v100.2h-39.6V111.3h39.6l66.2,100.6V111.3h39.6V273.7z"/>
		<path class="st0" d="M779.4,353.7v31.7h-43v130.7h-39.6V385.4h-43v-31.7H779.4z"/>
		<path class="st0" d="M838.9,385.4v32.9h53v30.5h-53v35.6h59.9v31.7h-99.5V353.7h99.5v31.7H838.9z"/>
		<path class="st0" d="M1007.3,516.2l-33.8-61.3h-9.5v61.3h-39.6V353.7h66.4c12.8,0,23.7,2.2,32.7,6.7c9,4.5,15.8,10.6,20.2,18.4
			c4.5,7.8,6.7,16.5,6.7,26c0,10.8-3,20.4-9.1,28.9c-6.1,8.5-15.1,14.5-27,18l37.5,64.3H1007.3z M964.1,426.9h24.5
			c7.2,0,12.7-1.8,16.3-5.3c3.6-3.5,5.4-8.6,5.4-15c0-6.2-1.8-11-5.4-14.6c-3.6-3.5-9.1-5.3-16.3-5.3h-24.5V426.9z"/>
		<path class="st0" d="M1177.2,353.7v110.6c0,17.1-4.8,30.3-14.5,39.6c-9.6,9.3-22.6,13.9-39,13.9c-17.1,0-30.9-4.9-41.2-14.6
			c-10.3-9.7-15.5-23.5-15.5-41.4h39.3c0,6.8,1.4,11.9,4.2,15.4c2.8,3.5,6.8,5.2,12,5.2c4.8,0,8.5-1.5,11.1-4.6
			c2.6-3.1,3.9-7.6,3.9-13.4V353.7H1177.2z"/>
		<path class="st0" d="M1310.2,487.5h-60.6l-9.7,28.7h-41.4l58.8-162.4h45.8l58.8,162.4h-41.9L1310.2,487.5z M1300,456.9l-20.1-59.5
			l-19.9,59.5H1300z"/>
		<path class="st0" d="M1563.6,353.7v162.4H1524v-97.4l-36.3,97.4h-31.9l-36.6-97.6v97.6h-39.6V353.7h46.7l45.6,112.4l45.1-112.4
			H1563.6z"/>
		<path class="st0" d="M1631.6,353.7v162.4H1592V353.7H1631.6z"/>
		<path class="st0" d="M1805.6,516.2H1766L1699.9,416v100.2h-39.6V353.7h39.6l66.2,100.6V353.7h39.6V516.2z"/>
	</g>
</g>
</svg>
