<?xml version="1.0" encoding="utf-8"?>
<!-- Generator: Adobe Illustrator 22.1.0, SVG Export Plug-In . SVG Version: 6.00 Build 0)  -->
<svg version="1.1" id="Layer_1" xmlns="http://www.w3.org/2000/svg" xmlns:xlink="http://www.w3.org/1999/xlink" x="0px" y="0px"
	 viewBox="0 0 2000 626.8" style="enable-background:new 0 0 2000 626.8;" xml:space="preserve">
<style type="text/css">
	.st0{fill: #adbbc6;}
	.st1{fill: #f8fafd;}
	.st2{fill:#E6E6E6;}
	.st3{fill:#FFFFFF;}
</style>
<g>
	<g>
		<path class="st0" d="M735.3,105.9V138h-43.5v132.3h-40V138h-43.5v-32.1H735.3z"/>
		<path class="st0" d="M839.2,270.2l-34.2-62h-9.6v62h-40V105.9h67.2c13,0,24,2.3,33.1,6.8c9.1,4.5,16,10.7,20.5,18.6
			c4.5,7.9,6.8,16.7,6.8,26.3c0,10.9-3.1,20.7-9.2,29.3c-6.2,8.6-15.3,14.7-27.3,18.3l37.9,65.1H839.2z M795.4,179.9h24.8
			c7.3,0,12.8-1.8,16.5-5.4c3.7-3.6,5.5-8.7,5.5-15.2c0-6.2-1.8-11.2-5.5-14.7c-3.7-3.6-9.2-5.4-16.5-5.4h-24.8V179.9z"/>
		<path class="st0" d="M1010.4,241.2H949l-9.8,29h-41.9l59.5-164.4h46.4l59.5,164.4h-42.4L1010.4,241.2z M1000.1,210.3l-20.4-60.2
			l-20.1,60.2H1000.1z"/>
		<path class="st0" d="M1227.6,270.2h-40l-67-101.4v101.4h-40V105.9h40l67,101.8V105.9h40V270.2z"/>
		<path class="st0" d="M1283.8,266c-9.5-3.9-17.1-9.7-22.8-17.3c-5.7-7.6-8.7-16.9-9-27.6h42.6c0.6,6.1,2.7,10.7,6.3,13.9
			c3.6,3.2,8.3,4.8,14,4.8c5.9,0,10.6-1.4,14-4.1c3.4-2.7,5.2-6.5,5.2-11.4c0-4.1-1.4-7.4-4.1-10.1c-2.7-2.7-6.1-4.8-10.1-6.6
			c-4-1.7-9.6-3.7-17-5.9c-10.6-3.3-19.3-6.6-26-9.8c-6.7-3.3-12.5-8.1-17.3-14.5c-4.8-6.4-7.3-14.7-7.3-25.1
			c0-15.3,5.5-27.3,16.6-35.9c11.1-8.7,25.5-13,43.3-13c18.1,0,32.7,4.3,43.8,13c11.1,8.7,17,20.7,17.8,36.2h-43.3
			c-0.3-5.3-2.3-9.5-5.9-12.5c-3.6-3-8.2-4.6-13.8-4.6c-4.8,0-8.7,1.3-11.7,3.9c-3,2.6-4.4,6.3-4.4,11.1c0,5.3,2.5,9.4,7.5,12.4
			c5,3,12.8,6.2,23.4,9.6c10.6,3.6,19.2,7,25.9,10.3c6.6,3.3,12.4,8,17.2,14.3c4.8,6.2,7.3,14.3,7.3,24.1c0,9.4-2.4,17.9-7.1,25.5
			c-4.8,7.6-11.7,13.7-20.7,18.3c-9.1,4.5-19.7,6.8-32.1,6.8C1304.1,271.9,1293.3,269.9,1283.8,266z"/>
		<path class="st0" d="M1503,241.2h-61.3l-9.8,29h-41.9l59.5-164.4h46.4l59.5,164.4h-42.4L1503,241.2z M1492.7,210.3l-20.4-60.2
			l-20.1,60.2H1492.7z"/>
		<path class="st0" d="M1668.5,270.2l-55.3-72.6v72.6h-40V105.9h40V178l54.8-72.1h47.1l-63.7,80.5l66,83.8H1668.5z"/>
		<path class="st0" d="M1763.5,266c-9.5-3.9-17.1-9.7-22.8-17.3c-5.7-7.6-8.7-16.9-9-27.6h42.6c0.6,6.1,2.7,10.7,6.3,13.9
			c3.6,3.2,8.3,4.8,14,4.8c5.9,0,10.6-1.4,14-4.1c3.4-2.7,5.2-6.5,5.2-11.4c0-4.1-1.4-7.4-4.1-10.1c-2.7-2.7-6.1-4.8-10.1-6.6
			c-4-1.7-9.6-3.7-17-5.9c-10.6-3.3-19.3-6.6-26-9.8c-6.7-3.3-12.5-8.1-17.3-14.5c-4.8-6.4-7.3-14.7-7.3-25.1
			c0-15.3,5.5-27.3,16.6-35.9c11.1-8.7,25.5-13,43.3-13c18.1,0,32.7,4.3,43.8,13c11.1,8.7,17,20.7,17.8,36.2h-43.3
			c-0.3-5.3-2.3-9.5-5.9-12.5c-3.6-3-8.2-4.6-13.8-4.6c-4.8,0-8.7,1.3-11.7,3.9c-3,2.6-4.4,6.3-4.4,11.1c0,5.3,2.5,9.4,7.5,12.4
			c5,3,12.8,6.2,23.4,9.6c10.6,3.6,19.2,7,25.9,10.3c6.6,3.3,12.4,8,17.2,14.3c4.8,6.2,7.3,14.3,7.3,24.1c0,9.4-2.4,17.9-7.1,25.5
			c-4.8,7.6-11.7,13.7-20.7,18.3c-9.1,4.5-19.7,6.8-32.1,6.8C1783.8,271.9,1773.1,269.9,1763.5,266z"/>
		<path class="st0" d="M1920.4,105.9v164.4h-40V105.9H1920.4z"/>
		<path class="st0" d="M719.4,487.3H658l-9.8,29h-41.9L665.7,352h46.4l59.5,164.4h-42.4L719.4,487.3z M709.1,456.4l-20.4-60.2
			l-20.1,60.2H709.1z"/>
		<path class="st0" d="M975.7,352v164.4h-40v-98.6l-36.8,98.6h-32.3l-37-98.8v98.8h-40V352h47.3L883,465.8L928.7,352H975.7z"/>
		<path class="st0" d="M1106.8,487.3h-61.3l-9.8,29h-41.9l59.5-164.4h46.4l59.5,164.4h-42.4L1106.8,487.3z M1096.5,456.4l-20.4-60.2
			l-20.1,60.2H1096.5z"/>
		<path class="st0" d="M1324.1,516.3h-40l-67-101.4v101.4h-40V352h40l67,101.8V352h40V516.3z"/>
	</g>
</g>
<g>
	<path class="st1" d="M306.8,579.5c-8,0-15.9-1.6-23.3-4.7c-24.4-10.2-87.1-42.2-142-119.5c-23.7-33.4-42.2-70.4-55.2-110.2
		c-14.7-45.1-22.1-93.8-22.1-144.7c0-24.7,14.7-46.7,37.4-56.1l181.8-75.7c7.5-3.1,15.3-4.7,23.4-4.7c8.2,0,16,1.6,23.5,4.7
		l181.8,75.8c22.7,9.4,37.4,31.5,37.4,56.1c0,50.9-7.4,99.6-22.1,144.7c-12.9,39.8-31.5,76.8-55.2,110.2
		c-54.9,77.3-117.6,109.3-142,119.4C322.7,577.9,314.9,579.5,306.8,579.5L306.8,579.5z M286.9,377.8L410.7,254l-10.1-10.1
		L286.9,357.5l-57.3-57.3l-10.1,10.1L286.9,377.8z"/>
	<path class="st0" d="M306.9,79.4c5.9,0,11.9,1.2,17.5,3.5l181.8,75.8c16.9,7,27.9,23.6,27.9,41.9c0,209.5-128.7,326.3-209.8,360.1
		c-5.6,2.3-11.5,3.5-17.4,3.5c-5.9,0-11.9-1.2-17.4-3.5C208.3,526.9,79.6,410.1,79.6,200.6c0-18.4,11.1-34.9,27.9-41.9l181.8-75.8
		C294.9,80.5,300.9,79.4,306.9,79.4C306.8,79.4,306.8,79.4,306.9,79.4C306.9,79.4,306.9,79.4,306.9,79.4 M286.9,335.8l-49.3-49.3
		c-2.2-2.2-5.1-3.3-8-3.3c-2.9,0-5.8,1.1-8,3.3l-15.9,15.9c-4.4,4.4-4.4,11.5,0,15.9l73.2,73.2c2.2,2.2,5.1,3.3,8,3.3
		c2.9,0,5.8-1.1,8-3.3L424.4,262c4.4-4.4,4.4-11.5,0-15.9l-15.9-15.9c-2.2-2.2-5.1-3.3-8-3.3c-2.9,0-5.8,1.1-8,3.3L286.9,335.8
		 M306.9,48.6L306.9,48.6c-10.2,0-20,2-29.4,5.8L95.7,130.2c-13.9,5.8-25.7,15.5-34.1,28c-8.4,12.6-12.8,27.2-12.8,42.3
		c0,52.5,7.7,102.8,22.9,149.4c13.4,41.2,32.7,79.7,57.3,114.3c21.4,30.1,46.3,56.8,74.1,79.2c24.2,19.6,50,35.3,74.5,45.5
		c9.3,3.9,19.1,5.8,29.2,5.8h0h0c10.1,0,19.9-2,29.2-5.8c24.6-10.2,50.4-26,74.6-45.5c27.8-22.5,52.7-49.1,74.1-79.2
		c24.6-34.6,43.8-73.1,57.3-114.3c15.2-46.6,22.9-96.9,22.9-149.4c0-15.1-4.4-29.7-12.8-42.3c-8.4-12.6-20.2-22.3-34.1-28.1
		L336.2,54.5C326.8,50.6,317,48.6,306.9,48.6L306.9,48.6z"/>
</g>
</svg>
