<svg xmlns="http://www.w3.org/2000/svg" width="115" height="34" viewBox="0 0 115 34">
    <g fill="none" fill-rule="evenodd">
        <path fill="#F15A23" d="M.428 11.837l9.637 12.122L.428 31.92zM4.306 31.921l7.252-6.048 5.011 6.048zM.428 5.351l2.515 3.172 10.34 12.884 3.35-2.66s-2.781-3.266-4.649-6.91C8.332 4.713 10.918.278 10.918.278H.428v5.073zM14.757 23.396l3.412-2.81s3.26 4.277 7.038 5.287c4.952 1.323 7.145-1.914 7.145-1.914v7.962H21.475l2.452-2.114s-1.28.85-4.409-1.311c-1.847-1.276-4.761-5.1-4.761-5.1zM15.07.255s-1.088 1.478-.313 5.096c.828 3.867 4.122 7.96 4.114 7.869 0 0 .212-4.064 2.604-6.45 5.098-5.083 10.877-2.057 10.877-2.057V.278L15.07.255z"/>
        <path fill="#F15A23" d="M32.352 10.072S29.128 7.32 26.325 7.32c-3.586 0-5.543 3.086-5.543 5.326 0 3.26 1.57 5.073 3.145 6.644 2.265 2.258 5.02 4.694 8.425 2.734v-11.95z"/>
        <path fill="#005E6A" d="M69.07.586h7.608s6.74 10.176 10.052 14.38a484.895 484.895 0 0 1 6.878 8.993V2.865c0-.91-2.4-2.279-2.4-2.279h8.774s-2.879 1.18-2.879 2.28V33.55s-2.762-1.527-5.894-5.156c-3.52-4.078-16.04-20.54-16.04-20.54v21.322c0 1.092 2.4 2.744 2.4 2.744h-8.5s2.331-1.665 2.331-2.744V2.865c0-.968-2.33-2.279-2.33-2.279zM104.896.586h9.764s-2.622 1.239-2.622 2.28v26.311c0 1.137 2.622 2.744 2.622 2.744h-9.764s2.44-1.643 2.44-2.744V2.865c0-1-2.44-2.279-2.44-2.279zM40.341.586s2.532 1.26 2.532 2.28v26.311c0 1.119-2.532 2.744-2.532 2.744h14.466c.904 0 11.03-1.65 11.03-9.435 0-7.784-7.865-8.513-7.865-8.513s4.792-1.328 4.792-6.654c0-5.74-7.053-6.733-7.957-6.733H40.341zm7.685 12.871V3.661h5.877c.904 0 4.069 1.052 4.069 4.958 0 3.218-3.165 4.838-4.069 4.838h-5.877zm0 2.57h6.781c.904 0 6.239 1.38 6.239 5.996 0 4.704-5.335 6.372-6.239 6.372h-6.78V16.026z"/>
    </g>
</svg>
