<svg xmlns="http://www.w3.org/2000/svg" width="143" height="34" viewBox="0 0 143 34">
    <g fill="#00529C" fill-rule="evenodd">
        <path fill-rule="nonzero" d="M38.692 8.438h7.706c3.121 0 5.448 1.365 5.448 4.243 0 2.11-1.08 3.284-2.952 3.907v.048c2.233.456 3.385 1.655 3.385 3.692 0 4.003-3.53 4.842-6.53 4.842h-7.057V8.438zm4.465 6.617h1.248c1.464 0 2.978-.36 2.978-1.775 0-1.533-1.442-1.677-2.931-1.677h-1.295v3.452zm0 6.952h1.32c1.633 0 3.337-.241 3.337-1.943 0-1.821-1.752-1.989-3.29-1.989h-1.367v3.932zM58.139 8.438h5.473L70.07 25.17h-4.897L63.924 21.6h-6.289l-1.32 3.571h-4.537l6.361-16.732zm2.737 3.452h-.049l-2.16 6.545h4.202l-1.993-6.545z"/>
        <path d="M70.691 8.438h5.689L82.046 19.8h.047l-.071-11.363h4.081V25.17h-5.547L74.7 13.735h-.047l.142 11.435h-4.104zM87.618 8.438h4.465v6.832h.048l5.04-6.832h5.377l-6.192 7.79 6.673 8.942h-5.69l-5.208-7.599h-.048v7.6h-4.465z"/>
        <path fill-rule="nonzero" d="M108.566 8.438h7.706c3.12 0 5.45 1.365 5.45 4.243 0 2.11-1.08 3.284-2.953 3.907v.048c2.233.456 3.383 1.655 3.383 3.692 0 4.003-3.528 4.842-6.528 4.842h-7.058V8.438zm4.464 6.617h1.249c1.465 0 2.976-.36 2.976-1.775 0-1.533-1.438-1.677-2.928-1.677h-1.297v3.452zm0 6.952h1.321c1.632 0 3.337-.241 3.337-1.943 0-1.821-1.752-1.989-3.289-1.989h-1.369v3.932zM123.143 8.438h7.97c2.976 0 5.4 1.343 5.4 4.22 0 2.228-1.055 3.715-3.215 4.217v.049c1.438.384 1.535 1.654 2.376 3.691l1.631 4.555h-4.656l-.96-3.019c-.912-2.877-1.49-3.598-3.145-3.598h-.937v6.617h-4.464V8.438zm4.464 6.951h1.176c1.442 0 3.266-.048 3.266-1.942 0-1.557-1.56-1.844-3.266-1.844h-1.176v3.786z"/>
        <path d="M138.536 8.437H143V25.17h-4.464z"/>
        <path fill-rule="nonzero" d="M28.504 0H5.137C2.3 0 0 2.353 0 5.256v23.108c0 2.875 2.257 5.212 5.057 5.255h23.434c2.837 0 5.138-2.352 5.138-5.255l.01-23.108C33.639 2.353 31.341 0 28.504 0zM7.914 30.926l-1.275.014c-1.543 0-2.794-1.267-2.794-2.83l-.008-.222V6.548l.009-1.15C3.904 3.885 5.055 2.67 6.56 2.67h2.592c2.349 0 4.253 2.04 4.253 4.444a4.39 4.39 0 0 1-1.223 3.055l-6.612 6.7 6.198 6.303c.798.823 1.28 1.903 1.28 3.086 0 2.578-2.297 4.668-5.135 4.668zm19.053-.021L15.412 30.9s1.335-2.883 1.335-4.668c0-2.177-.728-4.12-1.868-5.407l-3.953-4.023 4.034-4.163c1.201-1.126 1.999-3.126 1.999-5.406 0-1.804-.5-3.402-1.304-4.563h2.799c2.35 0 4.254 2.04 4.254 4.444a4.39 4.39 0 0 1-1.223 3.055L15 16.8l13.472 13.718c-.427.268-.965.387-1.504.387zm2.822-4.283l-9.654-9.826 4.598-4.667c.935-1.168 1.53-2.928 1.53-4.896 0-1.816-.507-3.455-1.319-4.615l2.057.062c1.544 0 2.795 1.267 2.795 2.83l-.007 21.112z"/>
    </g>
</svg>
