<svg xmlns="http://www.w3.org/2000/svg" viewBox="0 0 595.28 125.38"><ellipse cx="64.95" cy="62.68" rx="64.95" ry="62.68" fill="#00acd7"/><path d="M102.83,60.74A15,15,0,0,0,87,47H46a2.62,2.62,0,1,1,0-5.23H87.57A12.6,12.6,0,0,0,78.1,30.29a107.84,107.84,0,0,0-36.64,0,16.9,16.9,0,0,0-13,14,121.32,121.32,0,0,0,0,37.08,17.91,17.91,0,0,0,14.83,14,187.08,187.08,0,0,0,45.24,0A15.49,15.49,0,0,0,101.1,82.11a96.39,96.39,0,0,0,1.73-21.37ZM89.3,69.52h0v2.3a2.71,2.71,0,0,1-5.41,0v-2.3a3.78,3.78,0,0,1-1.36-2.93,4.06,4.06,0,1,1,6.77,2.93Z" fill="#fff" fill-rule="evenodd"/><path d="M314.87,55.62c.09-11-9.07-20-20.45-20s-20.7,8.75-20.78,19.74,9.07,20,20.45,20.06h.33c10.8.56,20-7.44,20.61-17.87,0-.63,0-1.25,0-1.88Zm-61.26,0h0c0-20.89,17.1-36.82,40.81-36.82s40.8,16,40.8,36.82S318.28,92.5,294.42,92.5,253.61,76.46,253.61,55.62Z" fill-rule="evenodd"/><path d="M221.14,59.44c0,8.62-9.1,15.67-20.62,15.67-10.59,1-20-6.42-21.11-16.63a17.12,17.12,0,0,1,0-3.12c0-11.38,8.65-19.22,22-19.22,10.82,0,19.81,7.16,19.81,15.25v8ZM222,18.75h0V27a33.71,33.71,0,0,0-24.19-8.2c-21,.19-37.87,16.77-37.67,37s17.37,36.54,38.37,36.36a31.7,31.7,0,0,0,23.22-8.62v7.05c0,9.56-8.55,16.56-19.81,16.56a31.79,31.79,0,0,1-23.38-7.94l-13.15,12.22a51.39,51.39,0,0,0,37.07,13.89c23.06,0,38.86-14.94,38.86-34.84V18.75Z" fill-rule="evenodd"/><path d="M347.13,20.89h19.38v6.17h.27a33.17,33.17,0,0,1,23.32-8.15c21.09.76,37.54,17.88,36.75,38.23-.76,19.28-16.77,34.74-36.75,35.46a35.74,35.74,0,0,1-22.62-7.36v34.89H347.29l-.16-99.24ZM387,36.14h0c-10.82,0-19.64,7.26-19.64,15.15v8.83c0,8.41,8.71,15.35,19.75,15.35,11.26.56,20.85-7.79,21.43-18.65s-8.07-20.12-19.33-20.68q-1.05,0-2.1,0Z" fill-rule="evenodd"/><path d="M465.6,48.89c13.26-1.73,17.21-3.55,17.21-7.11,0-4.59-5-7.36-12.82-7.36A17.06,17.06,0,0,0,452,47l-19-3.82c2.71-14.2,17.86-24.33,36.53-24.33,21.11,0,34.21,10.44,34.21,27.36V90.57H485.52V82.84h-.27a30.45,30.45,0,0,1-24.41,9.61c-16,0-27.06-8.41-27.06-20.9s9.09-19.63,31.82-22.66Zm18.84,7.36h-.28c-1.78,2.51-5.41,4-15.42,5.64C456.89,64,452.5,66.28,452.5,70.35s3.52,6.06,11.15,6.06c11.64,0,20.62-5.22,20.62-11.85Z" fill-rule="evenodd"/><polygon points="540.18 86.65 506.79 20.89 529.03 20.89 550.95 66.44 551.27 66.44 572.92 20.89 595.27 20.89 545.27 120.13 523.02 120.13 540.18 86.65" fill-rule="evenodd"/></svg>
