<svg xmlns="http://www.w3.org/2000/svg" width="100" height="34" viewBox="0 0 100 34">
    <g fill="none" fill-rule="evenodd">
        <path fill="#F0F0F0" d="M2.889 0H97.11c.796 0 1.518.329 2.041.859.523.53.848 1.261.848 2.067v28.148c0 .806-.325 1.537-.848 2.067a2.862 2.862 0 0 1-2.04.859H2.888a2.862 2.862 0 0 1-2.041-.859A2.936 2.936 0 0 1 0 31.074V2.926C0 2.12.325 1.39.848.86A2.862 2.862 0 0 1 2.888 0"/>
        <path fill="#FECF22" d="M98.889 22.852v8.18c0 1.02-.805 1.853-1.788 1.853H2.9c-.983 0-1.788-.834-1.788-1.853v-8.18H98.89"/>
        <path fill="#006AB4" d="M1.111 22.295H98.89V12.262H1.11z"/>
        <path fill="#D61627" d="M2.899 1.115H97.1c.983 0 1.788.834 1.788 1.853v8.18H1.11v-8.18c0-1.02.805-1.853 1.788-1.853"/>
        <path fill="#E6E6E6" d="M16.16 8.034C22.697 6.074 28.23 4.91 33.5 4.23c4.722-.61 9.212-.824 14.016-.869v-.016h5.157v.018c4.765.05 9.226.269 13.917.878 5.246.682 10.753 1.846 17.25 3.794.714.215 1.408.553 1.93 1.082.552.558.897 1.27.897 2.177v11.415c0 .907-.345 1.619-.897 2.177-.522.53-1.216.867-1.93 1.081-6.497 1.949-12.004 3.113-17.25 3.795-4.691.61-9.152.829-13.917.878v.017h-1.687v-.006h-.643v.006h-.686v-.005h-.959v-.003c-5.196-.019-9.968-.209-14.952-.839-5.325-.672-10.926-1.845-17.585-3.843-.714-.214-1.409-.552-1.931-1.081a2.992 2.992 0 0 1-.897-2.177V11.293c0-.907.345-1.619.897-2.177.522-.53 1.217-.867 1.93-1.082"/>
        <path fill="#006AB4" d="M61.275 20.834c-.408-.584-.017-1.555.271-2.097.307-.576.76-1.306 1.476-1.166.328 1.203-.724 3.38-1.747 3.263zm-22.283-3.34c.53 1.358-1.214 3.841-1.804 3.164-.479-.55.64-3.442 1.804-3.163zm3.671 3.166l-.207-.463c-.578.133-1.49.68-2.138.523-.352-.82 2.186-6.224 2.67-7.88l-1.273.059c-.36.604-1.023 2.719-1.348 3.157-2.251-.24-3.19.422-4.107 1.646-1.492 1.989-.397 2.188-1.52 2.839-.989.574-.847.249-.922.167-.41-.365.741-2.874.85-3.422.143-.713-.22-1.282-.87-1.243-.609.036-1.063.476-1.496.714-1.504.827-.088-2.368-4.183.582-.316.228-1.11.696-1.266.854.035-.26 1.214-2.855 1.454-3.464.462-1.17.926-2.382 1.32-3.572-1.487-.103-5.914.68-7.261 1.905-2.545 2.315.49 5.373 2.495 3.022-.484-.355-1.227-.01-1.34-.922-.098-.782.177-1.302.592-1.627.506-.397 2.727-.805 3.51-.955-.08.423-.425 1.219-.59 1.69-.878 2.493-1.953 6.299-5.073 6.397-1.632.051-2.099-.692-2.679-1.83-.357.412-.504 1.265-.298 1.886.185.556.615.941 1.125 1.192 2.439 1.2 4.591-.82 6.322-2.187.437-.345 2.061-2.025 2.894-1.608.466.946-.886 2.934-.916 3.917l1.606.035c.29-.812.525-1.698.8-2.55.235-.723.562-2.013 1.494-1.358.357.972-1.16 3.006-.329 3.688.862.708 2.799-.709 3.26-.992.36.528.353 1.187 1.281 1.347.74.127 1.492-.23 1.912-.583.262.33.198.66.803.602.596-.058 2.369-1.24 3.428-1.566zm30.49-1.386c-.072-.854.852-2.032 1.508-2.001.218.502-.164 1.054-.408 1.349-.281.338-.576.706-1.1.652zm-24.178-2.031l.183.575c.503-.144 1.06-.48 1.563-.337.158.974-1.293 3.65-1.502 4.784l1.58-.033c.313-.534.64-1.784.882-2.44.251-.681.544-2.011 1.464-1.684.542 1.092-.933 3.053-1.043 4.121l1.805.018c.334-.981.711-2.2 1.103-3.17.195-.48.4-1.233 1.102-1.032.798.228-.58 1.752-.565 3.1.007.604.408 1.134.999 1.075.785-.079 2.104-1.176 2.78-1.33.309.71.374 1.152 1.2 1.284.843.135 1.372-.272 1.914-.593.016.018.034.044.044.057l.12.175c.166.245.26.435.663.476 1.332.136 3.3-2.03 4.068-3.064.859-1.157.508-1.069 1.612-1.167-.242 1.064-1.431 2.766-.426 3.796 1.008 1.031 3.017-.36 3.627-.724.563.634.861 1.196 2.2 1.134 1.054-.05 1.638-.483 2.484-.732 1.029 1.723 4.39.027 4.262-1.021-.434-.085-.941.532-1.386.776-.617.338-1.243.123-1.258-.607-.007-.362.854-3.045 1.025-3.38l1.018-.01.338-1.18-.716-.014c.134-1.237.778-2.298.996-3.393l-1.43.058-1.147 3.238-1.048.061-.248 1.215.823-.013c-.174 1.151-.828 2.706-1.403 3.438-.595.757-2.726 1.209-3.113-.116.5-.57 1.37-.7 2.052-1.902 1.706-3.01-1.7-3.375-3.09-1.28-.867 1.308-.599 1.714-.55 3.264-1.715.972-2.317 1.165-2.163-.547.155-1.733.415-1.475.698-1.783.216-.235.297-.66.062-.892-.273-.288-.739-.033-1.247-.218-.323-.815.23-.95.452-1.396-.294-.07-.53-.03-.822-.076-.702-.11-.074-.13-.544-.405-.405.159-.432.174-.574.636-.41 1.331-.262 1.621-.977 2.646-.389.557-1.705 2.43-2.61 2.086-.42-.563 1.176-3.854 1.373-4.679-1.624-.123-1.38.19-1.608.448-1.501-.688-2.29-.103-3.212.73-1.318 1.194-1.376 2.913-1.538 3.102-.4.265-1.211.63-1.805.41-.171-.689.879-2.706 1.05-3.528.18-.866-.31-1.327-1.166-1.102-.643.17-.89.777-1.48.855-.498-.357-.521-1.106-1.538-.928-.718.125-.763.697-1.577.862-.015-.024-.028-.057-.037-.077l-.09-.228c-.04-.113-.13-.47-.31-.568-.82-.106-2.46.971-3.319 1.229z"/>
        <path fill="#D61627" d="M45.833 16.726a1.943 1.943 0 0 1 1.94 1.946 1.943 1.943 0 0 1-1.94 1.946 1.942 1.942 0 0 1-1.94-1.946 1.943 1.943 0 0 1 1.94-1.946zm0-1.677a3.618 3.618 0 0 1 3.611 3.623 3.618 3.618 0 0 1-3.61 3.623 3.618 3.618 0 0 1-3.611-3.623 3.618 3.618 0 0 1 3.61-3.623zm2.27 1.346a3.195 3.195 0 0 0-2.27-.943 3.216 3.216 0 0 0-3.21 3.22 3.216 3.216 0 0 0 3.21 3.22 3.216 3.216 0 0 0 3.21-3.22c0-.89-.359-1.694-.94-2.277zm-2.27-.507a2.78 2.78 0 0 1 2.775 2.784 2.78 2.78 0 0 1-2.775 2.784 2.78 2.78 0 0 1-2.775-2.784 2.78 2.78 0 0 1 2.775-2.784zm1.68 1.1a2.363 2.363 0 0 0-1.68-.698 2.378 2.378 0 0 0-2.374 2.382 2.378 2.378 0 0 0 2.374 2.382 2.378 2.378 0 0 0 2.374-2.382c0-.658-.265-1.253-.695-1.684zm-.592.593a1.53 1.53 0 0 0-2.175 0c-.278.28-.45.665-.45 1.091a1.54 1.54 0 0 0 1.537 1.543 1.54 1.54 0 0 0 1.538-1.543 1.54 1.54 0 0 0-.45-1.091z"/>
        <path fill="#D61627" d="M16.657 9.632c13.008-3.87 21.955-4.595 32.775-4.615h1.881c10.736.029 19.654.767 32.586 4.615.873.26 1.657.749 1.657 1.664v11.408c0 .915-.784 1.404-1.657 1.664-12.932 3.848-21.85 4.586-32.586 4.615h-1.38c-11.047.001-20.068-.685-33.276-4.615-.874-.26-1.657-.749-1.657-1.664V11.296c0-.915.783-1.404 1.657-1.664zm33.01-2.116c-10.107.038-19.162.425-31.008 3.503-.882.229-1.657.749-1.657 1.664v8.634c0 .915.775 1.435 1.657 1.664 11.755 3.054 20.76 3.458 30.773 3.502h1.693c10.012-.044 19.018-.448 30.771-3.502.882-.23 1.657-.749 1.657-1.664v-8.634c0-.915-.775-1.435-1.657-1.664C70.05 7.94 60.996 7.554 50.89 7.516h-1.222z"/>
    </g>
</svg>
