<?xml version="1.0" encoding="UTF-8"?>
<!DOCTYPE svg PUBLIC "-//W3C//DTD SVG 1.1//EN" "http://www.w3.org/Graphics/SVG/1.1/DTD/svg11.dtd">
<!-- Creator: CorelDRAW 2019 (64-Bit) -->
<svg xmlns="http://www.w3.org/2000/svg" xml:space="preserve" width="260px" height="240px" version="1.1" style="shape-rendering:geometricPrecision; text-rendering:geometricPrecision; image-rendering:optimizeQuality; fill-rule:evenodd; clip-rule:evenodd"
viewBox="0 0 260 239.64"
 xmlns:xlink="http://www.w3.org/1999/xlink"
 xmlns:xodm="http://www.corel.com/coreldraw/odm/2003">
 <defs>
  <style type="text/css">
   <![CDATA[
    .fil0 {fill:#E9232A;fill-rule:nonzero}
   ]]>
  </style>
 </defs>
 <g id="Layer_x0020_1">
  <metadata id="CorelCorpID_0Corel-Layer"/>
  <path class="fil0" d="M8.66 234.96c-4.94,-2.57 -8.84,-4.83 -8.65,-5.01 0.63,-0.63 24.28,-5.68 40.8,-8.71 35.75,-6.55 78.25,-11.8 120.58,-14.88 17.43,-1.27 80.5,-1.31 91.44,-0.06l7.17 0.82 -8.08 0.13c-14.35,0.22 -47.26,2.52 -73.05,5.11 -48.81,4.89 -103.07,13.92 -142.32,23.66 -8.02,2 -15.55,3.62 -16.74,3.62 -1.19,0 -6.2,-2.1 -11.15,-4.68zm68.24 -49.12l0 0c-0.73,-2.03 2.34,-2.94 3.67,-3.51 6.01,-2.58 10.24,-6.78 11.66,-11.57 0.67,-2.3 2.74,-15.27 4.58,-28.83 1.84,-13.56 3.5,-24.05 3.68,-24.66 0.13,-0.46 0.5,-2.08 2.44,-2.25 4.97,-0.05 8.65,0.02 13.74,0.02 2.81,-0.27 2.26,2.8 2.04,4.77 -0.22,2.49 -0.89,7.29 -1.67,13.15 -0.95,7.15 -2.38,17.84 -3.16,23.75 -1.77,13.28 -2.75,17.37 -5.81,24.22 -3.63,8.14 -9.19,12.87 -19.27,16.23 -2.04,0.64 -7.87,2.63 -8.51,0.86 -1.31,-4.22 -2.25,-7.89 -3.39,-12.18zm115.74 -4.46l0 0c-6.72,-2.71 -6.4,-13.18 0.64,-17.48 4.46,-2.71 10.73,-2.25 13.94,0.97 7.94,7.93 -3.73,20.89 -14.58,16.51zm-50.77 -6.25l0 0c-19.74,-3.38 -19.61,-26.92 -15.19,-40.37 5.54,-15.58 19.04,-20.1 30.13,-20.49 9.37,-0.32 22.35,1.42 25.61,3.43 0.9,0.56 0.47,5.95 -2.04,25.97 -1.75,13.89 -3.66,25.84 -4.24,26.55 -3.13,3.77 -24.08,6.77 -34.27,4.91zm17.23 -18.64l0 0c2.12,-7.88 3.01,-15 4.53,-23.32 -0.19,-2.87 -5.03,-2.89 -6.26,-2.9 -6.41,0 -10.2,3.6 -12.21,11.6 -2.75,10.98 0.13,17.09 8.04,17.09 2.5,-0.23 5.11,-0.09 5.9,-2.47zm-144.32 12.28l0 0c5.4,-13.18 27.08,-60.39 32.28,-70.17 0.99,-2.44 3.58,-2.92 5.35,-3.09 5.1,-0.24 9.51,-0.17 13.99,-0.14 4.61,0.04 4.68,1.66 5.27,5.09 0.73,3.41 9.73,57.16 11.76,70.06 0.27,2.14 0.79,2.81 -2,2.81 -3.86,0.01 -13.16,0.52 -16.32,0.28 -1.01,-0.13 -1.66,-0.79 -1.82,-1.54 -0.29,-1.38 -0.62,-3.76 -0.84,-6.23l-0.57 -6.43 -11.58 0 -11.59 0 -2.53 6.18c-0.9,2.2 -1.89,4.37 -2.62,5.8 -0.51,1.32 -1.28,1.93 -2.43,2.18 -2.83,-0.02 -12.88,0.35 -16.66,0.02 -1.87,-0.86 -0.18,-3.61 0.31,-4.82zm45.06 -27.25l0 0c-0.33,-3.48 -2.55,-21.38 -3.07,-24.03 -0.14,-0.28 -0.2,-0.19 -0.34,-0.02 -1.37,2.05 -8.77,20.23 -10.03,24.45 -0.16,0.58 0.22,0.79 0.77,0.75 1.88,-0.13 9.56,-0.28 11.89,-0.37 0.67,-0.05 0.73,-0.28 0.78,-0.78zm133.69 8.7l0 0c0.3,-2.34 0.95,-8.69 1.46,-14.12 0.5,-5.42 1.3,-13.89 1.78,-18.82 0.37,-3.74 0.69,-7.38 0.83,-9.29 0.28,-1.71 2.35,-1.91 3.71,-1.93 4.54,0.05 8.81,-0.22 12.89,0.16 1.93,0.2 2.74,0.62 2.75,1.77 -1.84,9.44 -8.46,42.01 -8.97,44.02 -0.44,1.74 -0.61,2.26 -3.27,2.41 -3.25,-0.06 -5.96,0.11 -9.26,0.1 -1.89,-0.03 -2.4,-0.58 -1.92,-4.3zm-91.56 -48.38l0 0c0,-5.76 3.7,-10.14 8.34,-11.99 4,-1.4 8.49,-1.4 10.88,1.33 4.24,4.94 1.46,12.22 -3.49,16.02 -6.35,4.37 -15.63,1.78 -15.73,-5.36zm113.75 -12.13l0 0c-1.39,-3.08 -5.84,-12.8 -9.89,-21.6 -4.05,-8.81 -7.15,-16.56 -6.89,-17.25 0.27,-0.68 4.78,-6.29 10.04,-12.46l8.55 -10.04c0.56,-0.68 1.2,-1.51 1.98,-1.52 5.16,0.03 10.5,0.33 15.42,0.29 3.66,-0.04 5.51,-0.27 2.79,2.49 -1.74,2.15 -5.17,6.1 -9.1,10.42 -5.67,6.26 -10.31,11.55 -10.31,11.75 0,0.21 4.26,9.55 9.45,20.76 4.09,8.81 7.46,16.69 8.6,19.98 0.48,1.12 0.05,2.08 -0.98,2.34 -1.38,0.32 -3.85,0.44 -8.11,0.44l-6.38 0c-1.56,0.17 -2.7,-0.11 -3.3,-1.44l-1.87 -4.16zm-190.83 -6.56l0 0c-5.74,-2.86 -8.45,-6.48 -8.94,-11.93 -0.3,-3.27 5.05,-47.22 7.42,-61.19 0.58,-3.28 0.83,-3.47 3.97,-3.47l6.19 0c3.25,0 6.21,-0.05 8.07,0.05 2.55,0.04 2.08,1.64 1.89,3.56 -0.44,4.29 -1.8,13.57 -3.51,25.52 -3.04,21.21 -3.81,28.69 -3.08,29.84 0.85,1.35 3,1.57 17.3,1.79l12.79 0.19c3.04,-0.17 3.67,0.58 3.37,3.31 -0.74,4.53 -1.15,8.14 -1.89,12.19 -0.51,2.53 -2.15,1.87 -4.69,2.03l-14.95 0.2c-19.17,0.24 -19.27,0.24 -23.94,-2.09zm147.46 1.63l0 0c-0.2,-0.37 0.34,-5.51 1.19,-11.43 0.84,-5.92 2.61,-18.63 3.93,-28.24 3.73,-27.29 4.96,-35.52 5.48,-38.66 0.55,-3.68 0.55,-3.47 4.15,-3.47l5.71 0c2.22,0 3.96,-0.03 5.3,0.01 5.12,0.17 4.47,-0.28 3.18,7.66 -0.49,3 -2.12,16.19 -3.62,27.29 -3.77,27.94 -6.25,45.07 -6.71,46.39 -0.42,1.24 -17.97,1.67 -18.61,0.45zm-97.47 -2.13l0 0c2.38,-19.96 4.65,-35.06 7.29,-53.64 0.2,-2.22 2.39,-2.48 4.94,-2.48 2.91,0 5.86,-0.04 8.63,0.05 5.36,0.02 6.76,0.74 6.21,4.32 -2.37,17.44 -5.31,33.01 -8.39,50.74 -0.58,3 -1.28,2.91 -4.15,2.91 -3.34,0.02 -9.27,0.13 -12.3,0.04 -1.77,-0.31 -2.17,-0.51 -2.23,-1.94zm37.82 -44.69l0 0c1.47,-7.72 2.49,-8.93 4.63,-10.33 2.63,-1.72 22.1,-3.52 28.82,-2.66 0.94,0.13 1.83,0.3 2.68,0.51 19.69,4.67 16.63,26.97 15.35,37.23 -1.35,9.79 -2.67,18.72 -2.94,19.83 -0.47,1.93 -0.89,2.01 -9.81,2.01 -3,0 -4.56,-0.1 -6.27,-0.26 -2.75,-0.18 -3.01,-0.8 -2.73,-2.8 1,-8.19 2.36,-15.25 3.37,-22.89 1.35,-10.44 0.99,-20.74 -11.96,-18.53 -2.22,0.57 -2.82,0.75 -3.13,2.96 -1.61,10.31 -3.03,20.95 -4.51,31.04 -0.33,2.4 -0.78,4.92 -1.24,7.15 -0.13,0.56 -0.19,1.07 -0.29,1.45 -0.14,0.44 -0.44,0.91 -0.74,0.45 -2.08,-3.79 -11.87,-3.16 -15.95,-0.38 -2.05,1.43 -2.47,2.19 -1.63,-2.15 0.14,-0.92 0.29,-1.84 0.43,-2.76 2.02,-13.3 3.39,-26.39 5.92,-39.87zm-27.95 -22.85l0 0c-2.19,-7.46 4.32,-14.83 11.62,-15.09 9.88,-0.66 12.61,12.93 2.5,19.1 -5.86,2.68 -12.01,2.11 -14.12,-4.01z"/>
 </g>
</svg>
