<?xml version="1.0" encoding="UTF-8"?>
<!DOCTYPE svg PUBLIC "-//W3C//DTD SVG 1.1//EN" "http://www.w3.org/Graphics/SVG/1.1/DTD/svg11.dtd">
<!-- Creator: CorelDRAW X5 -->
<svg xmlns="http://www.w3.org/2000/svg" xml:space="preserve" width="210mm" height="77.5mm" style="shape-rendering:geometricPrecision; text-rendering:geometricPrecision; image-rendering:optimizeQuality; fill-rule:evenodd; clip-rule:evenodd"
viewBox="0 0 21000 7750"
 xmlns:xlink="http://www.w3.org/1999/xlink">
 <defs>
  <style type="text/css">
   <![CDATA[
    .fil0 {fill:black;fill-rule:nonzero}
   ]]>
  </style>
 </defs>
 <g id="__x0023_Layer_x0020_1">
  <metadata id="CorelCorpID_0Corel-Layer"/>
  <path class="fil0" d="M20140 4750l0 -667 0 -1333 -2000 0 -1333 0 0 -667 3333 0 0 -1333 -3333 0 -2000 0 0 1333 0 667 0 1333 2000 0 1333 0 0 667 -3333 0 0 1333 3333 0 2000 0 0 -1333zm527 -417l0 2167c0,44 -18,87 -49,118 -31,31 -74,49 -118,49l-2167 0 0 333 2500 0c44,0 87,-18 118,-49 31,-31 49,-74 49,-118l0 -2500 -333 0zm-18000 -4333l-2500 0c-44,0 -87,18 -118,49 -31,31 -49,74 -49,118l0 2500 333 0 0 -2167c0,-44 18,-87 49,-118 31,-31 74,-49 118,-49l2167 0 0 -333zm2140 7750l1333 0 0 -3000 -1333 0 0 3000zm1167 -7000l-3167 0 0 1333 2000 0 0 2000 1333 0 0 -3167c0,-44 -18,-87 -49,-118 -31,-31 -74,-49 -118,-49zm-3833 0l-1167 0c-44,0 -87,18 -118,49 -31,31 -49,74 -49,118l0 5000c0,44 18,87 49,118 31,31 74,49 118,49l3167 0 0 -1333 -2000 0 0 -4000zm667 3333l1333 0 0 -1333 -1333 0 0 1333zm333 -1000l0 0 667 0 0 667 -667 0 0 -667zm3667 -2333l0 1333 4000 0 0 667 -2667 0 -1333 0 0 1333 0 2000 1333 0 0 -1980 2000 1980 2000 0 -2087 -2000 753 0 1333 0 0 -1333 0 -667 0 -1333 -1333 0 -4000 0zm6000 5333l1333 0 0 -5333 -1333 0 0 5333z"/>
 </g>
</svg>
