<svg width="108" height="47" viewBox="0 0 108 47" fill="none" xmlns="http://www.w3.org/2000/svg">
<g clip-path="url(#clip0)">
<path d="M82.6341 24.9886C82.5951 25.0079 82.5366 25.0079 82.4976 25.0272C82.3805 24.9306 82.2829 24.8146 82.1659 24.718C81.7756 24.4281 81.4049 24.0996 80.9951 23.8484C79.3561 22.8434 77.5415 22.7854 75.7659 23.1526C73.1707 23.6938 71.2976 25.2785 70.0098 27.5589C69.5024 28.4672 69.1707 29.4528 69.1122 30.4771C69.0537 31.366 69.1122 32.2937 69.2293 33.1826C69.3268 33.8204 69.561 34.4388 69.8146 35.0379C70.2439 36.0815 71.0049 36.8932 71.8049 37.6855C73.0537 38.9224 74.5561 39.6181 76.2537 39.908C77.2293 40.0819 78.2244 40.0239 79.2195 39.8307C80.3902 39.5988 81.4049 39.1156 82.2244 38.246C82.3024 38.1493 82.4195 38.0914 82.5756 37.9561C82.5951 38.1493 82.6146 38.2653 82.6146 38.3813C82.6146 38.7871 82.6146 39.2123 82.6146 39.6181C82.6146 39.908 82.7317 40.0239 83.0244 40.0046C83.9415 39.9853 84.839 39.9853 85.7561 40.0046C86.0488 40.0046 86.1463 39.8887 86.1463 39.6181C86.1463 34.2069 86.1463 28.7957 86.1463 23.4039C86.1463 23.114 86.0488 22.998 85.7561 22.998C85.0341 23.0174 84.2927 22.998 83.5707 22.998C82.4976 22.998 82.6341 22.8821 82.6146 23.945C82.6341 24.3122 82.6341 24.6407 82.6341 24.9886ZM22.322 40.2365C28.5659 40.2365 34.7902 40.2365 41.0341 40.2365C41.1707 40.2365 41.3268 40.2365 41.4634 40.2172C42.3024 39.9853 43.0439 39.5794 43.6098 38.903C44.1366 38.2846 44.4683 37.6082 44.4683 36.7965C44.4683 28.2739 44.4683 19.732 44.4878 11.2094C44.4878 10.2624 44.0976 9.48939 43.4927 8.83232C42.6927 7.96267 41.6195 7.6148 40.4878 7.6148C28.8 7.59548 17.1122 7.59548 5.42439 7.59548C4.66341 7.59548 4.09756 7.28627 3.78537 6.59054C3.49268 5.9528 3.53171 5.89482 4.21463 5.89482C14.6537 5.89482 25.0732 5.89482 35.5122 5.89482C36.078 5.89482 36.1561 5.81752 36.1561 5.25707C36.1561 4.05888 36.1366 2.84137 36.1561 1.64318C36.1756 1.00543 35.8829 0.541613 35.3951 0.213077C35.2 0.0777973 34.9073 0.0198204 34.6732 0.039146C33.9122 0.116449 33.1512 0.232403 32.3902 0.329031C31.7073 0.406334 31.0049 0.483636 30.3024 0.560939C30.0293 0.59959 29.7561 0.59959 29.4829 0.638241C28.761 0.73487 28.039 0.870149 27.3171 0.947452C26.5951 1.04408 25.8732 1.10206 25.1707 1.17936C24.8976 1.21801 24.6049 1.23734 24.3317 1.27599C23.6293 1.37262 22.9268 1.5079 22.2244 1.5852C21.5024 1.68183 20.7805 1.7398 20.0781 1.81711C19.8049 1.85576 19.5122 1.87508 19.239 1.91373C18.5171 2.01036 17.7951 2.14564 17.0732 2.22295C16.3512 2.31957 15.6098 2.37755 14.8878 2.45485C14.6146 2.47418 14.3415 2.4935 14.0683 2.53216C13.3268 2.62878 12.6049 2.76406 11.8634 2.86069C11.1415 2.95732 10.4 3.0153 9.67805 3.0926C9.40488 3.11193 9.13171 3.13125 8.85854 3.1699C8.1561 3.26653 7.43415 3.40181 6.73171 3.49844C6.02927 3.59507 5.32683 3.65304 4.62439 3.73035C4.35122 3.769 4.05854 3.78832 3.78537 3.82697C3.06341 3.9236 2.34146 4.07821 1.6 4.13619C0.663415 4.21349 0 4.83191 0 5.74022C0 15.8862 0 26.0128 0 36.1588C0 37.0091 0.156098 37.7822 0.62439 38.4972C1.30732 39.5601 2.30244 40.1979 3.57073 40.2172C9.83415 40.2558 16.0781 40.2365 22.322 40.2365ZM80.3512 11.8278C80.3512 13.8183 80.3512 15.8089 80.3512 17.7994C80.3512 18.1086 80.4488 18.2632 80.7805 18.2439C81.0732 18.2246 81.3463 18.2246 81.639 18.2439C81.9707 18.2632 82.0683 18.128 82.0683 17.8188C82.0488 16.2534 82.0683 14.688 82.0683 13.1419C82.0683 13.026 82.1268 12.91 82.1463 12.7748C82.2634 12.8327 82.3805 12.8714 82.4585 12.9487C83.4732 13.9923 85.2293 14.1662 86.5366 13.6058C87.2781 13.2772 87.8829 12.8134 88.3707 12.137C89.0732 11.1514 89.3463 10.0692 89.1902 8.92895C88.9756 7.51818 88.1951 6.43594 86.9463 5.68224C85.6 4.88989 83.5707 4.98651 82.439 6.12673C82.361 6.20403 82.2439 6.22336 82.1463 6.28133C82.1268 6.1847 82.0878 6.08808 82.0683 5.99145C82.0488 5.91415 82.0683 5.85617 82.0683 5.77887C82.0878 5.50831 81.9707 5.39235 81.6976 5.39235C81.4829 5.39235 81.2683 5.39235 81.0537 5.39235C80.3707 5.39235 80.3707 5.39235 80.3707 6.04943C80.3512 7.96267 80.3512 9.89523 80.3512 11.8278ZM55.278 13.7604C55.5122 13.7217 55.9415 13.7024 56.3317 13.6058C57.6195 13.3352 58.7122 12.7554 59.4146 11.6152C59.922 10.8229 60.1171 9.93388 59.7268 9.02558C59.2781 8.00132 58.5366 7.24762 57.5415 6.76447C56.5854 6.31998 55.5902 5.97212 54.5951 5.58561C53.9707 5.3537 53.4244 5.00584 52.9756 4.50337C52.5854 4.05888 52.5073 3.36316 52.8 2.95732C53.2878 2.30025 53.9707 1.95239 54.7707 1.89441C55.961 1.79778 57.0537 2.06834 58.0878 2.64811C58.1854 2.70609 58.4195 2.64811 58.4585 2.57081C58.6732 2.24227 58.8488 1.89441 59.0439 1.54655C59.1415 1.37262 59.1024 1.23734 58.9268 1.14071C57.522 0.425659 56.0976 -0.0768079 54.4585 0.174426C53.4244 0.387008 52.4878 0.773521 51.7463 1.5852C50.8488 2.57081 50.5756 3.73035 51.2 4.92854C51.8244 6.16538 52.9561 6.76447 54.1854 7.26694C55.122 7.65345 56.0781 7.96267 56.9756 8.42648C57.4244 8.65839 57.8537 9.10288 58.0488 9.54737C58.361 10.2044 57.9317 11.0161 57.2683 11.3833C56.4098 11.8471 55.5122 12.079 54.4976 11.9244C53.5024 11.7698 52.6634 11.364 51.8634 10.8035C51.6293 10.6489 51.5122 10.6683 51.3561 10.8422C51.122 11.1127 50.8683 11.3833 50.6146 11.6732C50.4585 11.8471 50.5561 11.9824 50.6927 12.0984C52.0195 13.1226 53.4634 13.7024 55.278 13.7604ZM62.7707 5.91415C62.7512 5.68224 62.7512 5.54696 62.7512 5.41168C62.7512 3.78832 62.7512 2.16497 62.7512 0.541613C62.7512 0.213077 62.6341 0.097123 62.3024 0.097123C62.0293 0.116449 61.7561 0.097123 61.4829 0.097123C60.9561 0.097123 60.9366 0.116449 60.9366 0.638241C60.9366 4.81258 60.9366 8.98692 60.9366 13.1613C60.9366 13.2192 60.9366 13.2772 60.9366 13.3352C60.9171 13.5864 61.0341 13.7024 61.2878 13.7024C61.6195 13.7024 61.9317 13.7024 62.2634 13.7024C62.6732 13.7024 62.7317 13.6444 62.7317 13.2192C62.7317 11.8664 62.6927 10.4943 62.7512 9.14153C62.8293 7.40222 64.3707 6.62919 65.8537 7.01571C66.8488 7.26694 67.3171 8.00132 67.3366 9.06423C67.3561 10.4557 67.3561 11.8471 67.3366 13.2579C67.3366 13.6058 67.4537 13.7217 67.8049 13.7024C68.1366 13.6831 68.4683 13.7024 68.8 13.7024C69.0341 13.7024 69.1512 13.5864 69.1512 13.3545C69.1512 12.91 69.1512 12.4849 69.1512 12.0404C69.1317 10.8422 69.1512 9.62467 69.0537 8.42648C68.9561 7.26694 68.3707 6.33931 67.3561 5.74022C66.0683 4.96719 64.722 4.85123 63.3366 5.52763C63.161 5.66291 63.0244 5.75954 62.7707 5.91415ZM104.839 10.1851C105.756 10.1851 106.673 10.1851 107.59 10.1851C107.863 10.1851 108 10.0692 107.98 9.7986C107.941 9.37344 107.941 8.92895 107.844 8.50378C107.649 7.63413 107.18 6.89975 106.517 6.31998C105.737 5.64359 104.839 5.31505 103.766 5.33438C102.4 5.3537 101.405 5.99145 100.624 7.03503C99.922 7.96267 99.6488 8.98693 99.8439 10.1851C100.098 11.5959 100.839 12.6201 102.088 13.2772C102.966 13.741 103.902 13.799 104.898 13.6058C106.01 13.3738 106.907 12.8327 107.629 11.9824C107.785 11.8085 107.785 11.6539 107.59 11.4993C107.298 11.2674 107.005 11.0354 106.712 10.7842C106.576 10.6683 106.459 10.6683 106.361 10.8035C105.854 11.4606 105.171 11.6925 104.371 11.8471C103.493 12.0211 102.146 11.4606 101.795 10.533C101.678 10.2238 101.698 10.1658 102.049 10.1658C103.005 10.1851 103.922 10.1851 104.839 10.1851ZM95.239 10.1851C96.1366 10.1851 97.0341 10.1851 97.9317 10.1851C98.3415 10.1851 98.4781 10.0692 98.4585 9.644C98.439 9.21883 98.361 8.81299 98.2634 8.38783C98.0878 7.55683 97.5805 6.93841 96.9756 6.35864C96 5.431 94.8293 5.21842 93.561 5.39235C92.4683 5.54696 91.6878 6.24268 91.0439 7.07368C90.0098 8.40716 89.9122 10.3397 90.9268 11.8085C91.7659 13.026 92.8976 13.741 94.4195 13.7217C94.7122 13.7217 95.0049 13.6444 95.2976 13.6058C96.4488 13.4898 97.3073 12.8521 98.0488 12.0404C98.2049 11.8664 98.2244 11.6925 98.0098 11.5186C97.7366 11.306 97.5024 11.0548 97.2098 10.8615C97.1122 10.7842 96.839 10.7842 96.7805 10.8615C96.2537 11.4799 95.5707 11.7312 94.7902 11.8471C93.7756 12.0017 92.7024 11.5379 92.2537 10.6103C92.078 10.2431 92.1171 10.1658 92.5268 10.1658C93.4439 10.1851 94.3415 10.1851 95.239 10.1851ZM79.239 9.52804C79.2976 7.15099 77.1317 5.2764 75.161 5.16045C72.2342 4.96719 70.439 7.34424 70.361 9.33479C70.2439 11.9824 72.4683 13.9536 74.8098 13.9536C77.1512 13.9343 79.2781 11.9631 79.239 9.52804ZM92.5073 47.0005C93.0732 47.0005 93.6585 46.9812 94.2244 47.0005C94.5171 47.0198 94.6927 46.8845 94.8293 46.6526C95.4146 45.6284 95.9805 44.6041 96.5463 43.5605C97.0146 42.7102 97.4829 41.8599 97.9512 41.0289C98.4976 40.0239 99.0634 39.019 99.6098 38.0334C100.078 37.1831 100.527 36.3327 100.995 35.4824C101.502 34.5741 102.01 33.6851 102.517 32.7768C102.79 32.2937 103.044 31.8105 103.317 31.3274C103.805 30.4771 104.293 29.6267 104.761 28.7764C105.268 27.8681 105.776 26.9405 106.283 26.0322C106.751 25.1818 107.239 24.3508 107.707 23.5005C107.902 23.1333 107.785 22.9594 107.376 22.9594C106.224 22.9594 105.054 22.9594 103.902 22.9594C103.668 22.9594 103.532 23.0367 103.415 23.2493C103.044 23.945 102.673 24.6214 102.302 25.2978C101.444 26.8438 100.585 28.3899 99.7268 29.9359C99.122 31.0182 98.5366 32.1004 97.9122 33.1826C97.8537 33.2986 97.7366 33.3759 97.639 33.4725C97.561 33.3759 97.4634 33.2793 97.4049 33.1633C96.7415 31.9072 96.0781 30.6317 95.4146 29.3755C94.8293 28.2739 94.2244 27.1724 93.639 26.0708C93.1707 25.1625 92.7024 24.2542 92.2146 23.3652C92.1171 23.1913 91.8829 22.9787 91.6878 22.9787C90.4976 22.9401 89.3268 22.9594 88.1366 22.9594C87.8244 22.9594 87.7463 23.114 87.8829 23.4039C88.5073 24.6021 89.1512 25.8002 89.7756 26.9984C90.5951 28.5445 91.4146 30.0905 92.2342 31.6366C92.5268 32.2164 92.8195 32.7961 93.1122 33.3759C93.8342 34.748 94.5756 36.1201 95.2781 37.4923C95.3366 37.5889 95.3171 37.7822 95.2781 37.8788C95.0244 38.3619 94.7707 38.8451 94.4976 39.3089C93.6195 40.8356 92.7415 42.343 91.8634 43.8697C91.3561 44.7394 90.8878 45.6284 90.3805 46.498C90.1854 46.8266 90.2829 47.0005 90.6732 47.0198C91.3366 47.0005 91.922 47.0005 92.5073 47.0005ZM50.5561 28.0613C50.5561 31.8878 50.5561 35.7336 50.5561 39.5601C50.5561 40.1012 50.5756 40.1206 51.122 40.1206C52.0976 40.1206 53.0537 40.1206 54.0293 40.1206C54.5171 40.1206 54.5756 40.0819 54.5951 39.5794C54.5951 39.5021 54.5951 39.4055 54.5951 39.3282C54.5951 37.4343 54.5951 35.5404 54.5951 33.6465C54.5951 33.1633 54.5951 33.1633 55.1024 33.1633C56.2927 33.1633 57.4829 33.144 58.6927 33.1633C59.922 33.1827 61.1512 33.1053 62.361 32.8348C63.922 32.4869 65.2488 31.7526 66.4195 30.7283C67.0439 30.1872 67.4927 29.4914 67.8829 28.7377C68.4683 27.6169 68.761 26.4187 68.8 25.1625C68.8195 24.7567 68.7024 24.3508 68.6829 23.945C68.6439 22.8627 68.2732 21.8771 67.8049 20.9302C67.239 19.732 66.3415 18.785 65.3659 17.9154C65.0341 17.6062 64.6049 17.3936 64.2146 17.1617C63.4927 16.7752 62.7707 16.408 61.9512 16.2534C61.4439 16.1567 60.9366 15.9828 60.4293 15.9635C57.3659 15.9442 54.2829 15.9442 51.2195 15.9442C50.6341 15.9442 50.5756 16.0021 50.5756 16.6012C50.5561 20.4084 50.5561 24.2349 50.5561 28.0613Z" fill="#FEFEFE"/>
<path d="M82.6344 24.988C82.6344 24.6595 82.6344 24.3116 82.6344 23.9831C82.6344 22.9202 82.4979 23.0361 83.5905 23.0361C84.3125 23.0361 85.054 23.0361 85.7759 23.0361C86.0686 23.0361 86.1662 23.1521 86.1662 23.442C86.1662 28.8532 86.1662 34.2643 86.1662 39.6562C86.1662 39.9461 86.0686 40.062 85.7759 40.0427C84.8588 40.0234 83.9613 40.0234 83.0442 40.0427C82.7515 40.0427 82.6344 39.9268 82.6344 39.6562C82.6344 39.2504 82.6344 38.8252 82.6344 38.4194C82.6344 38.3034 82.6149 38.2068 82.5954 37.9942C82.4393 38.1295 82.3222 38.1874 82.2442 38.2841C81.4247 39.1537 80.4101 39.6369 79.2393 39.8688C78.2442 40.062 77.2491 40.12 76.2735 39.9461C74.5759 39.6562 73.054 38.9605 71.8247 37.7236C71.0247 36.9313 70.2637 36.1196 69.8344 35.076C69.5808 34.4769 69.3466 33.8585 69.2491 33.2208C69.132 32.3318 69.054 31.4041 69.132 30.5152C69.2101 29.4909 69.5222 28.5053 70.0296 27.597C71.3174 25.3166 73.1905 23.7318 75.7857 23.1907C77.5613 22.8235 79.3759 22.8815 81.0149 23.8865C81.4247 24.1377 81.7954 24.4662 82.1857 24.7561C82.3027 24.8527 82.4198 24.9494 82.5174 25.0653C82.5369 25.0073 82.5954 24.988 82.6344 24.988ZM72.6052 31.5008C72.4491 34.2643 74.9662 36.3708 77.3662 36.4675C80.332 36.6027 82.6149 34.1097 82.6735 31.7327C82.7515 28.8338 80.3515 26.4954 77.5808 26.4761C74.9271 26.4761 72.4881 28.8145 72.6052 31.5008Z" fill="#F3473B"/>
<path d="M22.322 40.2365C16.078 40.2365 9.81463 40.2559 3.57073 40.2172C2.30244 40.2172 1.30732 39.5601 0.62439 38.4972C0.156098 37.7822 0 37.0091 0 36.1588C0.0195122 26.0322 0 15.8862 0 5.74022C0 4.83191 0.643902 4.21349 1.58049 4.13619C2.30244 4.07821 3.02439 3.9236 3.76585 3.82698C4.03902 3.78832 4.33171 3.769 4.60488 3.73035C5.30732 3.65304 6.00976 3.59507 6.7122 3.49844C7.43415 3.40181 8.13659 3.28586 8.83902 3.1699C9.1122 3.13125 9.38537 3.11193 9.65854 3.0926C10.3805 3.0153 11.122 2.95732 11.8439 2.86069C12.5854 2.76406 13.3073 2.62878 14.0488 2.53216C14.322 2.49351 14.5951 2.47418 14.8683 2.45485C15.5902 2.37755 16.3317 2.31957 17.0537 2.22295C17.7756 2.12632 18.4976 2.01036 19.2195 1.91374C19.4927 1.87508 19.7854 1.85576 20.0585 1.81711C20.7805 1.7398 21.5024 1.68183 22.2049 1.5852C22.9073 1.48857 23.6098 1.37262 24.3122 1.27599C24.5854 1.23734 24.878 1.21801 25.1512 1.17936C25.8732 1.10206 26.5951 1.04408 27.2976 0.947452C28.0195 0.850824 28.7415 0.73487 29.4634 0.638242C29.7366 0.59959 30.0098 0.580265 30.2829 0.560939C30.9854 0.483636 31.6683 0.406334 32.3707 0.329031C33.1317 0.232403 33.8927 0.097123 34.6537 0.039146C34.8878 0.0198204 35.2 0.0777974 35.3756 0.213077C35.8634 0.541613 36.1366 1.00543 36.1366 1.64318C36.1171 2.84137 36.1366 4.05888 36.1366 5.25707C36.1366 5.79819 36.0585 5.89482 35.4927 5.89482C25.0537 5.89482 14.6341 5.89482 4.19512 5.89482C3.5122 5.89482 3.47317 5.9528 3.76585 6.59054C4.09756 7.30559 4.6439 7.59548 5.40488 7.59548C17.0927 7.59548 28.7805 7.59548 40.4683 7.61481C41.6 7.61481 42.6732 7.96267 43.4732 8.83232C44.0976 9.47007 44.4878 10.2431 44.4878 11.1901C44.4683 19.7127 44.4878 28.2546 44.4683 36.7772C44.4683 37.5889 44.1366 38.2653 43.6098 38.8837C43.0244 39.5601 42.3024 39.966 41.4634 40.1979C41.3268 40.2365 41.1707 40.2172 41.0341 40.2172C34.8098 40.2365 28.5659 40.2365 22.322 40.2365ZM22.3024 39.9853C28.4488 39.9853 34.6146 39.9853 40.761 39.9853C41.5415 39.9853 42.2244 39.792 42.8098 39.3089C43.6878 38.6132 44.2341 37.7822 44.2341 36.6033C44.2146 28.1193 44.2146 19.6354 44.2341 11.1514C44.2341 10.2431 43.8634 9.52805 43.2976 8.8903C42.5561 8.0593 41.5415 7.78874 40.4878 7.78874C28.839 7.76941 17.2098 7.76941 5.56098 7.78874C4.66341 7.78874 3.62927 7.18964 3.43415 6.30066C3.29756 5.70156 3.31707 5.60494 3.96098 5.60494C14.4195 5.60494 24.878 5.60494 35.3366 5.60494C35.4341 5.60494 35.5317 5.60494 35.6293 5.60494C35.8244 5.62426 35.9024 5.54696 35.9024 5.3537C35.9024 4.02023 35.9024 2.68676 35.9024 1.33397C35.9024 0.792847 35.2976 0.1551 34.8293 0.193751C34.2244 0.251728 33.6195 0.348357 32.9951 0.425659C32.722 0.464311 32.4293 0.464311 32.1366 0.502962C31.3951 0.59959 30.6537 0.73487 29.8927 0.831498C29.1707 0.928126 28.4683 0.986103 27.7463 1.06341C27.4927 1.08273 27.2195 1.10206 26.9659 1.14071C26.2439 1.23734 25.5219 1.37262 24.8 1.46924C24.0976 1.56587 23.3951 1.62385 22.6927 1.70115C22.4195 1.7398 22.1463 1.7398 21.8732 1.77846C21.1317 1.87508 20.3902 2.01036 19.6293 2.10699C18.9073 2.20362 18.1659 2.2616 17.4439 2.3389C17.1707 2.35823 16.8976 2.37755 16.6244 2.4162C15.8634 2.51283 15.1024 2.62878 14.3415 2.74474C13.9512 2.80272 13.5415 2.84137 13.1317 2.88002C12.3512 2.97665 11.5707 3.07327 10.8098 3.1699C10.1073 3.24721 9.42439 3.32451 8.72195 3.42114C8.03902 3.51777 7.33658 3.63372 6.65366 3.73035C5.97073 3.82698 5.2878 3.88495 4.60488 3.94293C4.31219 3.98158 4.03902 3.98158 3.74634 4.02023C3.00488 4.13619 2.28293 4.29079 1.54146 4.34877C0.682927 4.40675 0.214634 4.94786 0.214634 5.75954C0.234146 15.9442 0.234146 26.1095 0.214634 36.2941C0.214634 37.0285 0.370732 37.6855 0.741463 38.304C1.38537 39.3669 2.34146 39.9466 3.59024 39.966C9.85366 40.0046 16.078 39.9853 22.3024 39.9853Z" fill="#F78D85"/>
<path d="M80.3515 11.8273C80.3515 9.89469 80.3515 7.96212 80.3515 6.04888C80.3515 5.39181 80.3515 5.39181 81.0345 5.39181C81.2491 5.39181 81.4637 5.39181 81.6784 5.39181C81.9515 5.37249 82.0686 5.50777 82.0491 5.77832C82.0491 5.85563 82.0296 5.9136 82.0491 5.99091C82.0686 6.08754 82.1076 6.18416 82.1271 6.28079C82.2247 6.24214 82.3418 6.20349 82.4198 6.12619C83.5515 4.98597 85.5808 4.87002 86.9271 5.6817C88.1759 6.4354 88.9759 7.49831 89.171 8.92841C89.3467 10.0879 89.0735 11.1702 88.3515 12.1365C87.8637 12.8129 87.2588 13.2767 86.5174 13.6052C85.2296 14.185 83.4735 14.0111 82.4393 12.9481C82.3613 12.8708 82.2247 12.8322 82.1271 12.7742C82.1076 12.8902 82.0491 13.0061 82.0491 13.1414C82.0491 14.7068 82.0296 16.2722 82.0491 17.8182C82.0491 18.1467 81.9515 18.282 81.6198 18.2434C81.3271 18.224 81.054 18.224 80.7613 18.2434C80.4296 18.2627 80.332 18.1081 80.332 17.7989C80.3515 15.8083 80.3515 13.8178 80.3515 11.8273ZM82.1467 9.48885C82.1467 10.9963 83.2979 12.1558 84.7613 12.1558C86.2637 12.1558 87.3954 11.0156 87.4345 9.54683C87.4735 8.15538 86.1467 6.89921 84.8393 6.89921C83.4149 6.89921 82.0296 8.17471 82.1467 9.48885Z" fill="#F44D40"/>
<path d="M55.2784 13.7598C53.4638 13.7018 52.0199 13.1414 50.7321 12.1171C50.5955 12.0011 50.4784 11.8852 50.654 11.6919C50.9077 11.4214 51.1418 11.1508 51.3955 10.8609C51.5516 10.687 51.6687 10.6483 51.9028 10.8223C52.6833 11.3827 53.5418 11.7886 54.537 11.9432C55.5516 12.0978 56.4492 11.8659 57.3077 11.4021C57.9711 11.0349 58.4004 10.2232 58.0882 9.56611C57.8735 9.12162 57.4443 8.67713 57.015 8.44523C56.1174 7.98141 55.1613 7.6722 54.2248 7.28569C53.015 6.78322 51.8638 6.1648 51.2394 4.94728C50.615 3.74909 50.8882 2.57023 51.7857 1.60394C52.4882 0.77294 53.4248 0.386427 54.4979 0.212496C56.137 -0.0580629 57.5613 0.46373 58.9662 1.17878C59.1418 1.27541 59.1809 1.41069 59.0833 1.58462C58.8882 1.93248 58.7126 2.28034 58.4979 2.60888C58.4394 2.68618 58.2052 2.72483 58.1272 2.68618C57.0931 2.10641 55.9809 1.83585 54.8101 1.93248C54.0101 1.99046 53.3272 2.35764 52.8394 2.99539C52.5272 3.40123 52.6248 4.09695 53.015 4.54144C53.4638 5.04391 54.0101 5.39177 54.6345 5.62368C55.6296 5.99087 56.6248 6.35805 57.5809 6.80254C58.576 7.26636 59.3174 8.03939 59.7662 9.06365C60.176 9.99128 59.9613 10.8609 59.454 11.6533C58.7516 12.7742 57.6589 13.3733 56.3711 13.6438C55.9418 13.6825 55.5126 13.7211 55.2784 13.7598Z" fill="#F44C40"/>
<path d="M62.7708 5.9136C63.005 5.75899 63.1611 5.64304 63.3367 5.56574C64.7025 4.88934 66.0684 4.98597 67.3562 5.77832C68.3513 6.37741 68.9562 7.30505 69.0537 8.46458C69.1513 9.66278 69.1318 10.861 69.1513 12.0785C69.1513 12.523 69.1513 12.9481 69.1513 13.3926C69.1513 13.6245 69.0537 13.7405 68.8001 13.7405C68.4684 13.7405 68.1367 13.7212 67.8049 13.7405C67.4537 13.7598 67.3367 13.6245 67.3367 13.296C67.3562 11.9046 67.3562 10.5131 67.3367 9.10233C67.3171 8.02009 66.8684 7.30505 65.8537 7.05381C64.3708 6.6673 62.8293 7.44032 62.7513 9.17963C62.6928 10.5324 62.7318 11.9046 62.7318 13.2573C62.7318 13.6825 62.6732 13.7405 62.2635 13.7405C61.9318 13.7405 61.6196 13.7405 61.2879 13.7405C61.0342 13.7405 60.9171 13.6245 60.9367 13.3733C60.9367 13.3153 60.9367 13.2573 60.9367 13.1994C60.9367 9.02503 60.9367 4.85069 60.9367 0.676344C60.9367 0.154551 60.9562 0.135225 61.483 0.135225C61.7562 0.135225 62.0293 0.135225 62.3025 0.135225C62.6147 0.1159 62.7513 0.251179 62.7513 0.579715C62.7318 2.20307 62.7513 3.82643 62.7513 5.44978C62.7513 5.54641 62.7708 5.68169 62.7708 5.9136Z" fill="#F44C40"/>
<path d="M104.839 10.1846C103.922 10.1846 103.004 10.1846 102.087 10.1846C101.736 10.1846 101.717 10.2426 101.834 10.5518C102.165 11.4795 103.531 12.0399 104.409 11.866C105.209 11.692 105.892 11.4601 106.4 10.8224C106.517 10.6871 106.614 10.6678 106.751 10.8031C107.044 11.0543 107.336 11.2862 107.629 11.5181C107.824 11.6727 107.824 11.8273 107.668 12.0012C106.946 12.8323 106.048 13.3927 104.936 13.6246C103.941 13.8179 103.004 13.7599 102.126 13.2961C100.878 12.639 100.136 11.6147 99.8825 10.204C99.6679 9.00577 99.9606 7.98151 100.663 7.05388C101.424 6.01029 102.419 5.39187 103.804 5.35322C104.878 5.3339 105.775 5.66243 106.556 6.33883C107.219 6.9186 107.687 7.65298 107.883 8.52263C107.98 8.94779 107.98 9.39228 108.019 9.81745C108.039 10.088 107.922 10.204 107.629 10.204C106.692 10.1846 105.775 10.1846 104.839 10.1846ZM103.922 8.75454C104.546 8.75454 105.17 8.75454 105.775 8.75454C106.029 8.75454 106.107 8.65791 105.99 8.426C105.561 7.6723 104.936 7.18916 104.039 7.13118C103.083 7.07321 102.419 7.57567 101.892 8.31005C101.697 8.59993 101.795 8.75454 102.126 8.75454C102.731 8.75454 103.317 8.75454 103.922 8.75454Z" fill="#F44C40"/>
<path d="M95.239 10.1846C94.3415 10.1846 93.4439 10.1846 92.5463 10.1846C92.1366 10.1846 92.0976 10.2619 92.2732 10.6291C92.7219 11.5567 93.7951 12.0205 94.8098 11.8659C95.5902 11.7306 96.2732 11.4987 96.8 10.8803C96.8585 10.803 97.1317 10.803 97.2293 10.8803C97.522 11.0735 97.7561 11.3248 98.0293 11.5374C98.2244 11.7113 98.2244 11.8852 98.0683 12.0592C97.3268 12.8708 96.4683 13.4893 95.3171 13.6245C95.0244 13.6632 94.7317 13.7405 94.439 13.7405C92.9171 13.7598 91.7854 13.0641 90.9463 11.8272C89.9317 10.3585 90.0098 8.42593 91.0634 7.09246C91.7073 6.26145 92.4878 5.56573 93.5805 5.41112C94.8293 5.23719 96.0195 5.44978 96.9951 6.37741C97.6 6.95718 98.1073 7.59492 98.2829 8.4066C98.3805 8.81244 98.439 9.23761 98.4781 9.66277C98.4976 10.0686 98.361 10.1846 97.9512 10.2039C97.0342 10.1846 96.1366 10.1846 95.239 10.1846ZM94.322 8.75446C94.8878 8.75446 95.4732 8.75446 96.039 8.75446C96.1561 8.75446 96.3707 8.71581 96.3707 8.65784C96.4098 8.54188 96.3512 8.36795 96.2732 8.27132C96.0781 8.02009 95.8634 7.78818 95.6293 7.59492C94.5756 6.72527 92.8195 7.13111 92.2927 8.34863C92.1561 8.65784 92.1951 8.75446 92.5463 8.75446C93.1512 8.75446 93.7366 8.75446 94.322 8.75446Z" fill="#F44C40"/>
<path d="M79.2396 9.52748C79.2786 11.9625 77.1518 13.9337 74.8103 13.9337C72.4688 13.9337 70.264 11.9625 70.3615 9.3149C70.4396 7.32435 72.2347 4.96662 75.1615 5.14055C77.1323 5.27583 79.3176 7.15042 79.2396 9.52748ZM74.8103 6.93784C73.5225 6.74458 72.1566 8.13603 72.1371 9.45018C72.1176 10.9769 73.4054 12.1944 74.7908 12.1558C76.3127 12.1364 77.4054 11.0156 77.4444 9.48883C77.4835 8.1167 76.1957 6.78323 74.8103 6.93784Z" fill="#F44C3F"/>
<path d="M92.5074 47C91.922 47 91.3367 47 90.7513 47C90.3611 47 90.2635 46.826 90.4586 46.4782C90.9464 45.6085 91.4342 44.7195 91.9415 43.8499C92.8196 42.3232 93.6976 40.7964 94.5757 39.289C94.8489 38.8252 95.1025 38.3421 95.3562 37.8589C95.4147 37.743 95.4147 37.569 95.3562 37.4724C94.6342 36.1003 93.9123 34.7282 93.1903 33.3561C92.8976 32.7763 92.605 32.1965 92.3123 31.6167C91.4928 30.0707 90.6733 28.5246 89.8537 26.9786C89.2098 25.7804 88.5854 24.5822 87.9611 23.384C87.8245 23.1135 87.9025 22.9395 88.2147 22.9395C89.405 22.9395 90.5757 22.9202 91.7659 22.9589C91.9415 22.9589 92.1952 23.1714 92.2928 23.3454C92.7806 24.2343 93.2293 25.1426 93.7172 26.051C94.3025 27.1525 94.9074 28.2541 95.4928 29.3556C96.1562 30.6118 96.8196 31.8873 97.483 33.1435C97.5415 33.2594 97.6391 33.3367 97.7171 33.4527C97.8147 33.3561 97.9123 33.2594 97.9903 33.1628C98.5952 32.0806 99.2001 30.9983 99.805 29.9161C100.663 28.37 101.522 26.824 102.381 25.2779C102.751 24.6015 103.142 23.9058 103.493 23.2294C103.61 23.0168 103.746 22.9395 103.981 22.9395C105.132 22.9395 106.303 22.9395 107.454 22.9395C107.863 22.9395 107.981 23.1135 107.785 23.4806C107.317 24.331 106.849 25.162 106.361 26.0123C105.854 26.9206 105.346 27.8482 104.839 28.7565C104.351 29.6069 103.863 30.4572 103.395 31.3075C103.122 31.7907 102.849 32.2738 102.595 32.757C102.088 33.6653 101.581 34.5542 101.073 35.4625C100.605 36.3129 100.156 37.1632 99.6879 38.0135C99.1415 39.0185 98.5757 40.0234 98.0293 41.009C97.5611 41.8593 97.0928 42.7097 96.6245 43.5407C96.0586 44.5649 95.4732 45.5892 94.9074 46.6328C94.7708 46.8647 94.5952 47 94.3025 46.9806C93.6586 46.9806 93.0928 47 92.5074 47ZM88.0976 23.1714C88.1757 23.326 88.2147 23.4613 88.2733 23.5773C88.8001 24.5436 89.3269 25.5098 89.8342 26.4761C90.7318 28.1768 91.6294 29.8774 92.5074 31.5588C92.8586 32.2352 93.2098 32.9116 93.5806 33.588C94.2245 34.8055 94.8684 36.0423 95.5123 37.2598C95.6489 37.5111 95.6489 37.7236 95.5123 37.9556C95.005 38.8639 94.4976 39.7722 93.9708 40.6611C93.3464 41.7627 92.722 42.8449 92.0976 43.9465C91.6293 44.7582 91.1611 45.5892 90.6928 46.4009C90.5562 46.6521 90.5952 46.7487 90.9269 46.7487C92.0196 46.7487 93.1318 46.768 94.2245 46.7487C94.3611 46.7487 94.5757 46.6328 94.6342 46.5168C95.5318 44.9128 96.4098 43.3088 97.2879 41.7047C97.7172 40.9317 98.1464 40.1587 98.5757 39.3857C99.5708 37.6077 100.585 35.8491 101.561 34.0904C102.244 32.8922 102.888 31.6554 103.551 30.4572C104.059 29.5682 104.566 28.6792 105.073 27.7709C105.834 26.3988 106.595 25.0267 107.356 23.6546C107.434 23.5 107.512 23.3454 107.59 23.1714C107.512 23.1521 107.454 23.1328 107.415 23.1328C106.244 23.1328 105.073 23.1135 103.903 23.1521C103.785 23.1521 103.629 23.3067 103.551 23.4227C102.985 24.3889 102.439 25.3552 101.912 26.3215C101.073 27.8096 100.254 29.317 99.4342 30.8244C98.9659 31.6747 98.4976 32.525 98.0293 33.3754C97.9903 33.4527 97.9123 33.53 97.8537 33.588C97.6391 33.8005 97.483 33.7812 97.3464 33.5107C97.2098 33.2401 97.0928 32.9695 96.9562 32.7183C96.2147 31.3269 95.4732 29.9547 94.7318 28.5633C94.4001 27.9449 94.0879 27.3071 93.7562 26.6694C93.1903 25.5871 92.605 24.5049 92.0001 23.4227C91.922 23.2874 91.7464 23.1521 91.6098 23.1521C90.4976 23.1328 89.3854 23.1328 88.2733 23.1328C88.2733 23.1328 88.2147 23.1521 88.0976 23.1714Z" fill="#F9A9A3"/>
<path d="M50.5556 28.0609C50.5556 24.2344 50.5556 20.4272 50.5556 16.6007C50.5556 16.0017 50.6142 15.9437 51.1995 15.9437C54.263 15.9437 57.3459 15.9243 60.4093 15.963C60.9166 15.963 61.4239 16.1563 61.9313 16.2529C62.7508 16.3882 63.4727 16.7747 64.1947 17.1612C64.6044 17.3738 65.0142 17.6057 65.3459 17.9149C66.3215 18.7845 67.2191 19.7315 67.7849 20.9297C68.2337 21.896 68.6239 22.8623 68.663 23.9445C68.6825 24.3503 68.7995 24.7562 68.78 25.162C68.741 26.4182 68.4483 27.6164 67.863 28.7373C67.4922 29.4716 67.0239 30.1674 66.3995 30.7278C65.2288 31.7714 63.902 32.4864 62.341 32.8343C61.1313 33.1049 59.902 33.1822 58.6727 33.1628C57.4825 33.1435 56.2922 33.1628 55.0825 33.1628C54.5752 33.1628 54.5752 33.1628 54.5752 33.646C54.5752 35.5399 54.5752 37.4338 54.5752 39.3277C54.5752 39.405 54.5752 39.5016 54.5752 39.5789C54.5556 40.0814 54.4971 40.1201 54.0093 40.1201C53.0337 40.1201 52.0776 40.1201 51.102 40.1201C50.5556 40.1201 50.5361 40.1007 50.5361 39.5596C50.5556 35.7138 50.5556 31.8873 50.5556 28.0609ZM50.8093 28.0222C50.8093 31.8487 50.8093 35.6945 50.8093 39.521C50.8093 39.8302 50.8874 39.9268 51.2191 39.9268C52.1361 39.9075 53.0532 39.9075 53.9703 39.9268C54.302 39.9268 54.3605 39.8302 54.3605 39.521C54.341 37.4918 54.3605 35.4819 54.3605 33.4527C54.3605 32.9696 54.4386 32.8923 54.9264 32.8923C56.6239 32.8923 58.3215 32.8729 60.0191 32.8923C61.1313 32.8923 62.2239 32.699 63.2776 32.3512C64.2337 32.0419 65.0727 31.5395 65.8922 30.9211C66.6142 30.3799 67.102 29.7035 67.5313 28.9498C68.0776 28.0415 68.4678 27.0559 68.5069 25.9737C68.5459 25.1234 68.5654 24.2537 68.4288 23.4034C68.3313 22.6883 68.0581 21.954 67.7459 21.2969C67.3947 20.5625 66.9849 19.8281 66.4581 19.1904C65.5605 18.0695 64.3898 17.2578 63.0434 16.736C62.1849 16.4075 61.2873 16.1369 60.3508 16.1369C57.3459 16.1369 54.3215 16.1369 51.3166 16.1369C50.8093 16.1369 50.8093 16.1369 50.8093 16.6201C50.8093 20.4466 50.8093 24.2344 50.8093 28.0222Z" fill="#F89A93"/>
<path d="M72.6046 31.5008C72.4875 28.8339 74.9265 26.4762 77.5997 26.4955C80.3704 26.4955 82.7704 28.8532 82.6924 31.7521C82.6338 34.1291 80.3314 36.6221 77.385 36.4868C74.9655 36.3709 72.4485 34.2451 72.6046 31.5008Z" fill="#FEFBFB"/>
<path d="M22.3027 39.9848C16.0783 39.9848 9.85391 39.9848 3.62952 39.9848C2.38074 39.9848 1.42464 39.405 0.780736 38.3228C0.410004 37.7044 0.253906 37.028 0.253906 36.3129C0.253906 26.1283 0.273418 15.963 0.253906 5.7784C0.253906 4.96672 0.722199 4.42561 1.58074 4.36763C2.3222 4.32898 3.04415 4.15505 3.78561 4.03909C4.05878 4.00044 4.35147 3.98112 4.64415 3.96179C5.32708 3.88449 6.01 3.82651 6.69293 3.74921C7.37586 3.65258 8.0783 3.53663 8.76122 3.44C9.46366 3.34337 10.1466 3.28539 10.849 3.18876C11.6295 3.09214 12.41 2.99551 13.171 2.89888C13.5807 2.8409 13.971 2.80225 14.3807 2.7636C15.1417 2.66697 15.9027 2.55102 16.6637 2.43506C16.9368 2.39641 17.21 2.37709 17.4832 2.35776C18.2051 2.28046 18.9466 2.22248 19.6685 2.12585C20.41 2.02922 21.171 1.91327 21.9124 1.79732C22.1856 1.75866 22.4588 1.73934 22.732 1.72001C23.4344 1.64271 24.1368 1.58473 24.8393 1.48811C25.5612 1.39148 26.2832 1.27552 27.0051 1.15957C27.2588 1.12092 27.532 1.12092 27.7856 1.08227C28.5076 1.00496 29.2295 0.927662 29.932 0.850359C30.6734 0.753731 31.4149 0.637777 32.1759 0.521823C32.449 0.483172 32.7417 0.483172 33.0344 0.44452C33.6393 0.367218 34.2442 0.270589 34.8685 0.212612C35.3368 0.173961 35.9417 0.811708 35.9417 1.35283C35.9612 2.6863 35.9417 4.01977 35.9417 5.37256C35.9417 5.58514 35.8637 5.64312 35.6685 5.6238C35.571 5.6238 35.4734 5.6238 35.3759 5.6238C24.9173 5.6238 14.4588 5.6238 4.00025 5.6238C3.35635 5.6238 3.33683 5.72042 3.47342 6.31952C3.66854 7.2085 4.70269 7.8076 5.60025 7.8076C17.249 7.78827 28.8783 7.78827 40.5271 7.8076C41.5807 7.8076 42.5954 8.07816 43.3368 8.90916C43.9222 9.5469 44.2734 10.262 44.2734 11.1703C44.2539 19.6542 44.2539 28.1382 44.2734 36.6222C44.2734 37.801 43.7271 38.6513 42.849 39.3277C42.2637 39.7916 41.5612 40.0041 40.8003 40.0041C34.6149 39.9848 28.4685 39.9848 22.3027 39.9848ZM22.0685 13.8759C21.5222 13.8372 20.7027 13.9918 19.8832 14.243C18.3612 14.7262 17.1124 15.5765 16.3515 17.0259C15.8051 18.0888 15.6685 19.2097 16.0783 20.3306C16.6246 21.8187 17.7368 22.843 19.1222 23.5387C20.2539 24.0991 21.4442 24.505 22.6149 24.9688C23.4929 25.3166 24.371 25.6258 25.1515 26.167C25.6783 26.5535 26.1856 26.9593 26.4393 27.5391C26.5954 27.9063 26.7124 28.3314 26.6734 28.718C26.5563 29.7615 25.8149 30.4379 24.9368 30.8824C23.7661 31.4815 22.5368 31.7521 21.171 31.5202C20.1173 31.3269 19.1027 31.037 18.2051 30.4766C17.7954 30.2254 17.4051 29.9548 17.0149 29.6842C16.8783 29.5876 16.7417 29.549 16.6051 29.7036C16.2539 30.1287 15.8832 30.5539 15.5124 30.9597C15.3368 31.1723 15.3173 31.3656 15.571 31.5202C16.3515 32.0033 17.0929 32.5251 17.9124 32.9309C19.8442 33.8972 21.8734 34.1678 23.9807 33.6847C25.7954 33.2788 27.3173 32.3898 28.3515 30.7858C29.0734 29.6649 29.2881 28.486 28.8783 27.2106C28.4685 25.993 27.6685 25.0461 26.6149 24.3117C25.6198 23.616 24.5271 23.1328 23.3759 22.7463C22.2051 22.3405 20.9759 21.9926 19.9222 21.3162C19.2978 20.9297 18.6929 20.4852 18.4198 19.7895C17.932 18.6106 18.3612 17.625 19.532 16.91C20.8002 16.137 22.2051 16.0403 23.649 16.3109C24.6637 16.5041 25.6588 16.852 26.5563 17.3738C26.771 17.5091 26.9466 17.4511 27.0637 17.2385C27.3563 16.7747 27.6295 16.3109 27.9027 15.8471C28.0198 15.6538 28.0002 15.4992 27.8051 15.4026C27.61 15.2866 27.4149 15.19 27.2002 15.0934C25.7173 14.359 24.1173 13.8759 22.0685 13.8759Z" fill="#F34336"/>
<path d="M82.1466 9.4889C82.0295 8.15543 83.4149 6.87994 84.8198 6.89926C86.1271 6.89926 87.4539 8.15543 87.4149 9.54688C87.3759 11.0156 86.2441 12.1558 84.7417 12.1558C83.2978 12.1752 82.1466 10.9963 82.1466 9.4889Z" fill="#FEF8F8"/>
<path d="M103.922 8.75449C103.317 8.75449 102.731 8.75449 102.127 8.75449C101.775 8.75449 101.678 8.59988 101.892 8.31C102.4 7.57562 103.063 7.07315 104.039 7.13113C104.936 7.18911 105.561 7.65292 105.99 8.42595C106.107 8.65786 106.049 8.75449 105.775 8.75449C105.151 8.73516 104.546 8.75449 103.922 8.75449Z" fill="#FDF2F1"/>
<path d="M94.3219 8.75447C93.7366 8.75447 93.1512 8.75447 92.5658 8.75447C92.2146 8.75447 92.1561 8.65784 92.3122 8.34863C92.8585 7.13111 94.6146 6.72527 95.6488 7.59493C95.8829 7.78818 96.0976 8.03942 96.2927 8.27132C96.3707 8.36795 96.4097 8.54188 96.3902 8.65784C96.3707 8.71581 96.1756 8.75447 96.0585 8.75447C95.4732 8.75447 94.9073 8.75447 94.3219 8.75447Z" fill="#FDF2F1"/>
<path d="M74.8091 6.93787C76.175 6.78326 77.4823 8.09741 77.4433 9.50818C77.4042 11.0349 76.3116 12.1558 74.7896 12.1751C73.4042 12.1944 72.1164 10.9769 72.136 9.46953C72.1555 8.13606 73.5213 6.74461 74.8091 6.93787Z" fill="#FEF8F8"/>
<path d="M88.0977 23.1714C88.2147 23.1521 88.2733 23.1328 88.3513 23.1328C89.4635 23.1328 90.5757 23.1134 91.6879 23.1521C91.8245 23.1521 92.0196 23.2874 92.0781 23.4226C92.6635 24.5049 93.2489 25.5871 93.8342 26.6694C94.1659 27.2878 94.4781 27.9255 94.8098 28.5633C95.5513 29.9547 96.2928 31.3462 97.0342 32.7183C97.1708 32.9695 97.2879 33.2594 97.4245 33.5106C97.5611 33.7619 97.7172 33.7812 97.9318 33.5879C97.9903 33.53 98.0684 33.4527 98.1074 33.3754C98.5757 32.525 99.044 31.6747 99.5123 30.8244C100.332 29.317 101.171 27.8289 101.99 26.3215C102.537 25.3552 103.083 24.3889 103.629 23.4226C103.707 23.3067 103.864 23.1521 103.981 23.1521C105.151 23.1328 106.322 23.1328 107.493 23.1328C107.532 23.1328 107.571 23.1521 107.668 23.1714C107.59 23.3453 107.532 23.4999 107.434 23.6546C106.673 25.0267 105.912 26.3988 105.151 27.7709C104.644 28.6599 104.137 29.5489 103.629 30.4572C102.966 31.6747 102.303 32.8922 101.639 34.0904C100.644 35.8684 99.6489 37.627 98.6538 39.3856C98.2245 40.1587 97.7952 40.9317 97.3659 41.7047C96.4879 43.3088 95.6098 44.9128 94.7123 46.5168C94.6342 46.6328 94.4391 46.7487 94.3025 46.7487C93.2098 46.768 92.0977 46.768 91.005 46.7487C90.6733 46.7487 90.6342 46.6521 90.7708 46.4009C91.2391 45.5892 91.7074 44.7582 92.1757 43.9465C92.8001 42.8449 93.4245 41.7627 94.0489 40.6611C94.5562 39.7528 95.0635 38.8445 95.5903 37.9555C95.7269 37.7236 95.7269 37.4917 95.5903 37.2598C94.9464 36.0423 94.3025 34.8055 93.6586 33.5879C93.3074 32.9115 92.9562 32.2352 92.5855 31.5588C91.6879 29.8581 90.8098 28.1574 89.9123 26.4761C89.405 25.5098 88.8586 24.5435 88.3513 23.5773C88.2147 23.4613 88.1562 23.326 88.0977 23.1714Z" fill="#F34538"/>
<path d="M50.8096 28.0222C50.8096 24.2343 50.8096 20.4465 50.8096 16.6587C50.8096 16.1755 50.8096 16.1755 51.3169 16.1755C54.3218 16.1755 57.3462 16.1755 60.351 16.1755C61.2876 16.1755 62.1852 16.4268 63.0437 16.7746C64.3901 17.2964 65.5608 18.1081 66.4584 19.229C66.9657 19.8667 67.3949 20.6011 67.7462 21.3355C68.0584 21.9926 68.312 22.7269 68.4291 23.442C68.5462 24.273 68.5267 25.1426 68.5071 26.0123C68.4681 27.0752 68.0779 28.0608 67.5315 28.9884C67.1023 29.7228 66.5949 30.3992 65.8925 30.9597C65.0925 31.5781 64.234 32.0806 63.2779 32.3898C62.2242 32.7376 61.151 32.9502 60.0193 32.9309C58.3218 32.9116 56.6242 32.9309 54.9266 32.9309C54.4388 32.9309 54.3608 33.0082 54.3608 33.4913C54.3608 35.5205 54.3608 37.5304 54.3608 39.5596C54.3608 39.8688 54.2827 39.9654 53.9705 39.9654C53.0535 39.9461 52.1364 39.9461 51.2193 39.9654C50.9071 39.9654 50.8096 39.8688 50.8096 39.5596C50.8096 35.6945 50.8096 31.8486 50.8096 28.0222ZM54.4779 24.5435C54.4779 26.0316 54.4779 27.5197 54.4779 29.0078C54.4779 29.2397 54.5169 29.3943 54.8096 29.3943C56.8193 29.317 58.8486 29.5489 60.8388 29.2783C62.5949 29.0271 63.9413 28.1961 64.7023 26.5534C65.0925 25.7224 65.112 24.8334 64.9754 23.9831C64.7608 22.7269 64.1364 21.664 63.1023 20.8717C62.2047 20.1953 61.2096 19.7508 60.0974 19.7121C58.3803 19.6542 56.6632 19.7121 54.9462 19.6928C54.5949 19.6928 54.4974 19.8088 54.4974 20.1373C54.4779 21.606 54.4779 23.0748 54.4779 24.5435Z" fill="#F34538"/>
<path d="M22.068 13.8758C24.1167 13.8758 25.7167 14.359 27.2387 15.132C27.4338 15.2286 27.6484 15.3253 27.8436 15.4412C28.0387 15.5572 28.0582 15.6924 27.9411 15.8857C27.6484 16.3495 27.3753 16.8133 27.1021 17.2771C26.985 17.4897 26.8094 17.5477 26.5948 17.4124C25.6972 16.8906 24.7216 16.5428 23.6875 16.3495C22.2631 16.079 20.8387 16.1756 19.5704 16.9486C18.3997 17.6637 17.9704 18.6299 18.4582 19.8281C18.7509 20.5239 19.3558 20.949 19.9606 21.3549C21.0338 22.0313 22.2436 22.3791 23.4143 22.785C24.5655 23.1908 25.6582 23.6546 26.6533 24.3503C27.6875 25.0847 28.507 26.0317 28.9167 27.2492C29.346 28.5247 29.1119 29.7035 28.3899 30.8244C27.3558 32.4285 25.8338 33.2981 24.0192 33.7233C21.9119 34.2064 19.8631 33.9359 17.9509 32.9696C17.1314 32.5637 16.3899 32.0226 15.6094 31.5588C15.3558 31.4042 15.3558 31.2109 15.5509 30.9984C15.9216 30.5732 16.2923 30.1674 16.6436 29.7422C16.7801 29.5876 16.8972 29.6262 17.0533 29.7229C17.4436 29.9934 17.8338 30.264 18.2436 30.5152C19.1606 31.0757 20.1558 31.3655 21.2094 31.5588C22.5558 31.81 23.8045 31.5202 24.9753 30.9211C25.8533 30.4766 26.5753 29.8002 26.7119 28.7566C26.7509 28.3701 26.6533 27.9256 26.4777 27.5777C26.2045 26.9979 25.7167 26.5728 25.1899 26.2056C24.4094 25.6452 23.5119 25.3553 22.6533 25.0074C21.4826 24.5436 20.2728 24.1378 19.1606 23.5773C17.7753 22.8816 16.6631 21.8573 16.1167 20.3692C15.707 19.2484 15.824 18.1275 16.3899 17.0646C17.1509 15.6151 18.3997 14.7648 19.9216 14.2817C20.7021 13.9725 21.5411 13.8372 22.068 13.8758Z" fill="#FEF7F7"/>
</g>
<defs>
<clipPath id="clip0">
<rect width="108" height="47" fill="white"/>
</clipPath>
</defs>
</svg>
